if (_typeface_js && _typeface_js.loadFace) _typeface_js.loadFace({"glyphs":{"S":{"x_min":111,"x_max":875,"ha":1000,"o":"m 264 416 q 210 427 235 416 q 165 457 184 438 q 135 501 146 475 q 125 555 125 526 l 125 833 q 135 887 125 862 q 165 931 146 913 q 210 961 184 950 q 264 973 235 973 l 735 973 q 789 961 764 973 q 834 931 815 950 q 864 887 853 913 q 875 833 875 862 l 875 708 l 736 708 l 736 834 l 264 834 l 264 555 l 735 555 q 789 544 764 555 q 834 514 815 533 q 864 469 853 495 q 875 416 875 444 l 875 138 q 864 85 875 110 q 834 40 853 59 q 789 10 815 21 q 735 0 764 0 l 250 0 q 196 10 221 0 q 151 40 170 21 q 121 85 132 59 q 111 139 111 110 l 111 264 l 250 264 l 250 139 l 736 139 l 736 416 l 264 416 "},"¦":{"x_min":125,"x_max":264,"ha":389,"o":"m 264 308 l 264 -292 l 125 -292 l 125 308 l 264 308 m 264 1042 l 264 441 l 125 441 l 125 1042 l 264 1042 "},"/":{"x_min":55.609375,"x_max":558.171875,"ha":614,"o":"m 55 -69 l 423 1042 l 558 1042 l 183 -69 l 55 -69 "},"y":{"x_min":27.8125,"x_max":730.453125,"ha":758,"o":"m 160 -292 l 311 64 l 27 722 l 168 722 l 379 224 l 590 722 l 730 722 l 293 -292 l 160 -292 "},"Á":{"x_min":41.375,"x_max":930.515625,"ha":973,"o":"m 555 972 l 930 0 l 791 0 l 705 224 l 266 224 l 180 0 l 41 0 l 416 972 l 555 972 m 319 363 l 651 363 l 486 791 l 319 363 m 516 1250 l 719 1250 l 490 1097 l 362 1097 l 516 1250 "},"g":{"x_min":111,"x_max":750,"ha":861,"o":"m 111 589 q 121 641 111 617 q 150 683 132 665 q 192 712 168 701 q 244 723 216 723 l 483 723 q 533 713 509 723 q 575 685 557 703 q 604 645 592 668 q 616 595 615 621 l 616 723 l 750 723 l 750 -158 q 739 -210 750 -186 q 710 -252 728 -234 q 668 -281 692 -270 q 616 -292 643 -292 l 194 -292 l 194 -158 l 616 -158 l 616 28 l 244 28 q 192 38 216 28 q 150 67 168 49 q 121 109 132 85 q 111 161 111 133 l 111 589 m 616 162 l 616 589 l 244 589 l 244 162 l 616 162 "},"²":{"x_min":83,"x_max":480.453125,"ha":564,"o":"m 83 599 q 96 652 83 632 q 139 687 110 672 l 373 797 l 373 875 l 180 875 l 180 813 l 83 813 l 83 903 q 90 932 83 919 q 109 954 97 945 q 135 968 120 963 q 163 973 149 973 l 389 973 q 418 967 404 973 q 444 953 432 962 q 463 931 456 944 q 470 903 470 918 l 470 800 q 457 747 470 767 q 413 712 443 726 l 180 602 l 180 555 l 382 555 l 382 617 l 480 617 l 480 458 l 83 458 l 83 599 l 83 599 "},"ë":{"x_min":111,"x_max":723,"ha":834,"o":"m 723 293 l 244 293 l 244 134 l 723 134 l 723 0 l 244 0 q 192 10 216 0 q 150 39 168 21 q 121 81 132 57 q 111 133 111 105 l 111 589 q 121 641 111 617 q 150 683 132 665 q 192 712 168 701 q 244 723 216 723 l 589 723 q 641 712 617 723 q 683 683 665 701 q 712 641 701 665 q 723 589 723 617 l 723 293 m 244 589 l 244 427 l 589 427 l 589 589 l 244 589 m 484 994 l 631 994 l 631 847 l 484 847 l 484 994 m 201 994 l 348 994 l 348 847 l 201 847 l 201 994 "},"ƒ":{"x_min":-69.171875,"x_max":666.6875,"ha":681,"o":"m 448 867 l 408 639 l 604 639 l 580 505 l 384 505 l 266 -158 q 247 -210 261 -186 q 211 -252 232 -235 q 164 -281 190 -270 q 111 -292 139 -292 l -69 -292 l -47 -158 l 133 -158 l 251 505 l 88 505 l 112 639 l 275 639 l 315 867 q 334 919 320 895 q 370 961 349 943 q 417 990 391 979 q 470 1001 443 1001 l 666 1001 l 644 867 l 448 867 "},"Î":{"x_min":-50.1875,"x_max":438.8125,"ha":389,"o":"m 264 972 l 264 0 l 125 0 l 125 972 l 264 972 m 438 1097 l 297 1097 l 194 1188 l 91 1097 l -50 1097 l 111 1264 l 278 1264 l 438 1097 "},"e":{"x_min":111,"x_max":723,"ha":834,"o":"m 723 293 l 244 293 l 244 134 l 723 134 l 723 0 l 244 0 q 192 10 216 0 q 150 39 168 21 q 121 81 132 57 q 111 133 111 105 l 111 589 q 121 641 111 617 q 150 683 132 665 q 192 712 168 701 q 244 723 216 723 l 589 723 q 641 712 616 723 q 683 683 665 701 q 712 641 701 665 q 723 589 723 617 l 723 293 m 244 589 l 244 427 l 589 427 l 589 589 l 244 589 "},"Ã":{"x_min":41.375,"x_max":930.515625,"ha":973,"o":"m 555 972 l 930 0 l 791 0 l 705 224 l 266 224 l 180 0 l 41 0 l 416 972 l 555 972 m 319 363 l 651 363 l 486 791 l 319 363 m 221 1099 q 233 1166 221 1134 q 267 1220 245 1197 q 319 1256 288 1243 q 385 1270 349 1270 q 450 1259 423 1270 q 499 1236 476 1248 q 542 1212 521 1223 q 591 1202 564 1202 q 638 1222 621 1202 q 658 1270 656 1242 l 751 1270 q 738 1202 750 1234 q 704 1148 726 1171 q 652 1112 682 1125 q 585 1099 622 1099 q 521 1109 548 1099 q 472 1133 495 1120 q 428 1156 450 1145 q 380 1167 407 1167 q 333 1146 351 1167 q 314 1099 316 1126 l 221 1099 "},"J":{"x_min":97,"x_max":768,"ha":893,"o":"m 97 305 l 236 305 l 236 139 l 629 139 l 629 973 l 768 973 l 768 139 q 756 85 768 110 q 726 40 745 59 q 682 10 708 21 q 629 0 657 0 l 236 0 q 182 10 207 0 q 138 40 156 21 q 108 85 119 59 q 97 139 97 110 l 97 305 "},"»":{"x_min":96.984375,"x_max":697.21875,"ha":766,"o":"m 697 296 l 394 0 l 394 139 l 563 318 l 394 497 l 394 636 l 697 339 l 697 296 m 400 296 l 96 0 l 96 139 l 266 318 l 96 497 l 96 636 l 400 339 l 400 296 "},"©":{"x_min":69,"x_max":1070,"ha":1139,"o":"m 69 486 q 106 686 69 595 q 210 844 143 778 q 369 948 277 911 q 569 986 461 986 q 770 948 679 986 q 928 844 862 911 q 1032 686 995 778 q 1070 486 1070 595 q 1032 285 1070 377 q 928 127 995 193 q 770 23 862 60 q 569 -14 679 -14 q 369 23 461 -14 q 210 127 277 60 q 106 285 143 193 q 69 486 69 377 m 569 82 q 732 111 658 82 q 858 195 805 141 q 940 322 911 248 q 970 486 970 397 q 940 649 970 574 q 858 776 911 723 q 732 860 805 830 q 569 890 658 890 q 406 860 479 890 q 279 776 332 830 q 198 649 227 723 q 169 486 169 574 q 198 322 169 397 q 279 195 227 248 q 406 111 332 141 q 569 82 479 82 m 351 677 q 357 706 351 693 q 373 731 363 720 q 398 747 384 741 q 427 754 412 754 l 705 754 q 734 747 720 754 q 759 731 748 741 q 775 707 769 720 q 782 677 782 693 l 782 590 l 688 590 l 688 660 l 445 660 l 445 313 l 688 313 l 688 382 l 782 382 l 782 294 q 775 265 782 279 q 759 241 769 251 q 734 225 748 231 q 705 219 720 219 l 427 219 q 398 225 412 219 q 373 241 384 231 q 357 265 363 251 q 351 294 351 279 l 351 677 "},"ò":{"x_min":111,"x_max":736,"ha":847,"o":"m 736 133 q 725 81 736 105 q 696 39 714 57 q 654 10 679 21 q 603 0 630 0 l 244 0 q 192 10 216 0 q 150 39 168 21 q 121 81 132 57 q 111 133 111 105 l 111 589 q 121 641 111 617 q 150 683 132 665 q 192 712 168 701 q 244 723 216 723 l 603 723 q 654 712 630 723 q 696 683 679 701 q 725 641 714 665 q 736 589 736 617 l 736 133 m 244 589 l 244 134 l 603 134 l 603 589 l 244 589 m 545 846 l 417 846 l 189 1000 l 391 1000 l 545 846 "},"^":{"x_min":55.609375,"x_max":719.59375,"ha":775,"o":"m 457 973 l 719 558 l 580 558 l 387 871 l 194 558 l 55 558 l 318 973 l 457 973 "},"«":{"x_min":69.171875,"x_max":669.40625,"ha":766,"o":"m 69 339 l 372 636 l 372 497 l 202 318 l 372 139 l 372 0 l 69 296 l 69 339 m 366 339 l 669 636 l 669 497 l 499 318 l 669 139 l 669 0 l 366 296 l 366 339 "},"D":{"x_min":125,"x_max":959,"ha":1057,"o":"m 618 139 q 767 191 715 139 q 820 340 820 243 l 820 632 q 806 717 820 679 q 766 780 792 754 q 703 820 740 806 q 618 834 666 834 l 264 834 l 264 139 l 618 139 m 125 0 l 125 973 l 618 973 q 759 948 696 973 q 866 880 822 924 q 934 772 910 835 q 959 632 959 709 l 959 340 q 934 200 959 263 q 866 92 910 137 q 759 24 822 48 q 618 0 696 0 l 125 0 "},"ÿ":{"x_min":27.609375,"x_max":730.40625,"ha":758,"o":"m 160 -292 l 311 64 l 27 721 l 168 721 l 379 224 l 590 721 l 730 721 l 292 -292 l 160 -292 m 446 994 l 593 994 l 593 847 l 446 847 l 446 994 m 164 994 l 311 994 l 311 847 l 164 847 l 164 994 "},"í":{"x_min":62.390625,"x_max":419.140625,"ha":370,"o":"m 252 722 l 252 0 l 118 0 l 118 722 l 252 722 m 216 1000 l 419 1000 l 190 846 l 62 846 l 216 1000 "},"w":{"x_min":27.8125,"x_max":1094.65625,"ha":1122,"o":"m 261 0 l 27 722 l 162 722 l 333 177 l 493 722 l 629 722 l 788 177 l 959 722 l 1094 722 l 861 0 l 722 0 l 560 530 l 400 0 l 261 0 "},"$":{"x_min":97,"x_max":861,"ha":958,"o":"m 97 264 l 232 264 l 232 139 l 424 139 l 424 416 l 250 416 q 196 427 221 416 q 151 457 170 438 q 121 501 132 475 q 111 555 111 526 l 111 833 q 121 887 111 862 q 151 931 132 913 q 196 961 170 950 q 250 973 221 973 l 424 973 l 424 1111 l 549 1111 l 549 973 l 722 973 q 776 961 750 973 q 820 931 801 950 q 850 887 839 913 q 861 833 861 862 l 861 708 l 726 708 l 726 834 l 549 834 l 549 555 l 722 555 q 776 544 750 555 q 820 514 801 533 q 850 469 839 495 q 861 416 861 444 l 861 138 q 850 85 861 110 q 820 40 839 59 q 776 10 801 21 q 722 0 750 0 l 549 0 l 549 -139 l 424 -139 l 424 0 l 236 0 q 182 10 207 0 q 138 40 156 21 q 108 85 119 59 q 97 139 97 110 l 97 264 m 245 555 l 424 555 l 424 834 l 245 834 l 245 555 m 549 416 l 549 139 l 726 139 l 726 416 l 549 416 "},"\\":{"x_min":55.609375,"x_max":558.171875,"ha":614,"o":"m 430 -69 l 55 1042 l 190 1042 l 558 -69 l 430 -69 "},"Ì":{"x_min":-38.65625,"x_max":318.09375,"ha":389,"o":"m 264 972 l 264 0 l 125 0 l 125 972 l 264 972 m 318 1097 l 190 1097 l -38 1250 l 164 1250 l 318 1097 "},"µ":{"x_min":111,"x_max":750,"ha":847,"o":"m 111 -292 l 111 722 l 244 722 l 244 134 l 616 134 l 616 722 l 750 722 l 750 0 l 616 0 l 616 127 q 604 78 615 101 q 575 37 592 54 q 533 10 557 20 q 483 0 509 0 l 244 0 l 244 -292 l 111 -292 "},"Ç":{"x_min":125,"x_max":930,"ha":1028,"o":"m 387 -156 l 499 0 l 263 0 q 210 10 235 0 q 165 40 184 21 q 135 85 146 59 q 125 139 125 110 l 125 833 q 135 887 125 862 q 165 931 146 913 q 210 961 184 950 q 263 973 235 973 l 791 973 q 844 961 819 973 q 889 931 870 950 q 919 887 908 913 q 930 833 930 862 l 930 708 l 791 708 l 791 834 l 264 834 l 264 139 l 791 139 l 791 264 l 930 264 l 930 139 q 919 85 930 110 q 889 40 908 59 q 844 10 870 21 q 791 0 819 0 l 598 0 l 555 -62 q 592 -69 575 -62 q 622 -90 609 -77 q 642 -120 635 -103 q 650 -156 650 -137 l 650 -262 q 642 -299 650 -282 q 622 -329 635 -316 q 592 -349 610 -342 q 556 -357 575 -357 l 376 -357 l 376 -263 l 556 -263 l 556 -156 l 387 -156 "},"-":{"x_min":111.234375,"x_max":436.09375,"ha":547,"o":"m 111 459 l 436 459 l 436 325 l 111 325 l 111 459 "},"Q":{"x_min":124.796875,"x_max":958.328125,"ha":1083,"o":"m 516 0 l 263 0 q 209 10 235 0 q 165 40 184 21 q 135 85 146 59 q 124 139 124 110 l 124 833 q 135 887 124 862 q 165 931 146 912 q 209 961 184 950 q 263 972 235 972 l 819 972 q 873 961 847 972 q 917 931 898 950 q 947 887 936 912 q 958 833 958 862 l 958 139 q 947 85 958 110 q 917 40 936 59 q 873 10 898 21 q 819 0 847 0 l 516 0 m 611 251 l 611 139 l 819 139 l 819 833 l 263 833 l 263 139 l 472 139 l 472 251 l 611 251 "},"M":{"x_min":125,"x_max":1170,"ha":1295,"o":"m 627 0 l 264 713 l 264 0 l 125 0 l 125 973 l 277 973 l 647 240 l 1018 973 l 1170 973 l 1170 0 l 1032 0 l 1032 713 l 668 0 l 627 0 "},"C":{"x_min":125,"x_max":930,"ha":1028,"o":"m 125 833 q 135 887 125 862 q 165 931 146 913 q 210 961 184 950 q 264 973 235 973 l 791 973 q 844 961 819 973 q 889 931 870 950 q 919 887 908 913 q 930 833 930 862 l 930 708 l 791 708 l 791 834 l 264 834 l 264 139 l 791 139 l 791 264 l 930 264 l 930 139 q 919 85 930 110 q 889 40 908 59 q 844 10 870 21 q 791 0 819 0 l 264 0 q 210 10 235 0 q 165 40 184 21 q 135 85 146 59 q 125 139 125 110 l 125 833 "},"!":{"x_min":97,"x_max":300,"ha":398,"o":"m 159 361 l 104 973 l 293 973 l 237 361 l 159 361 m 97 203 l 300 203 l 300 0 l 97 0 l 97 203 "},"ç":{"x_min":111,"x_max":723,"ha":834,"o":"m 276 -156 l 388 0 l 244 0 q 192 10 216 0 q 150 39 168 21 q 121 81 132 57 q 111 133 111 105 l 111 589 q 121 641 111 617 q 150 683 132 665 q 192 712 168 701 q 244 723 216 723 l 589 723 q 641 712 617 723 q 683 683 665 701 q 712 641 701 665 q 723 589 723 617 l 723 467 l 589 467 l 589 589 l 244 589 l 244 134 l 589 134 l 589 256 l 723 256 l 723 133 q 712 81 723 105 q 683 39 701 57 q 641 10 665 21 q 589 0 617 0 l 487 0 l 444 -62 q 481 -69 464 -62 q 511 -90 498 -77 q 531 -120 524 -103 q 539 -156 539 -137 l 539 -262 q 531 -299 539 -282 q 511 -329 524 -316 q 480 -349 498 -342 q 444 -357 463 -357 l 264 -357 l 264 -263 l 444 -263 l 444 -156 l 276 -156 "},"È":{"x_min":125,"x_max":833.703125,"ha":917,"o":"m 125 973 l 833 973 l 833 834 l 264 834 l 264 555 l 750 555 l 750 416 l 264 416 l 264 139 l 833 139 l 833 0 l 125 0 l 125 973 m 608 1097 l 481 1097 l 251 1250 l 454 1250 l 608 1097 "},"{":{"x_min":27.6875,"x_max":454.84375,"ha":539,"o":"m 454 -160 l 454 -292 l 435 -292 q 317 -273 370 -292 q 227 -220 264 -255 q 169 -136 189 -186 q 149 -22 149 -86 q 151 29 149 1 q 156 84 154 57 q 161 136 159 112 q 164 179 164 161 q 156 243 164 218 q 133 282 149 268 q 92 303 117 297 q 33 309 67 309 l 27 309 l 27 442 l 33 442 q 92 447 67 442 q 133 468 117 453 q 156 507 149 482 q 164 571 164 532 q 161 613 164 589 q 156 665 159 637 q 151 720 154 692 q 149 772 149 748 q 169 886 149 836 q 227 970 189 936 q 317 1023 264 1005 q 435 1042 370 1042 l 454 1042 l 454 910 l 435 910 q 325 875 363 910 q 288 770 288 840 q 290 724 288 749 q 295 674 292 700 q 299 624 297 649 q 302 576 302 599 q 280 454 302 505 q 209 375 258 403 q 280 295 258 346 q 302 173 302 245 q 299 126 302 151 q 295 75 297 101 q 290 25 292 50 q 288 -19 288 1 q 325 -124 288 -89 q 435 -160 363 -160 l 454 -160 "},"X":{"x_min":41.375,"x_max":912.890625,"ha":954,"o":"m 216 973 l 476 608 l 737 973 l 905 973 l 560 490 l 912 0 l 744 0 l 476 373 l 209 0 l 41 0 l 393 490 l 48 973 l 216 973 "},"ô":{"x_min":111,"x_max":736,"ha":847,"o":"m 736 133 q 725 81 736 105 q 696 39 714 57 q 654 10 679 21 q 603 0 630 0 l 244 0 q 192 10 216 0 q 150 39 168 21 q 121 81 132 57 q 111 133 111 105 l 111 589 q 121 641 111 617 q 150 683 132 665 q 192 712 168 701 q 244 723 216 723 l 603 723 q 654 712 630 723 q 696 683 679 701 q 725 641 714 665 q 736 589 736 617 l 736 133 m 244 589 l 244 134 l 603 134 l 603 589 l 244 589 m 668 847 l 526 847 l 423 938 l 320 847 l 178 847 l 340 1014 l 507 1014 l 668 847 "},"¼":{"x_min":84,"x_max":994.109375,"ha":1092,"o":"m 118 0 l 762 973 l 877 973 l 226 0 l 118 0 m 264 973 l 264 458 l 167 458 l 167 875 l 84 875 l 84 973 l 264 973 m 826 514 l 929 514 l 929 195 l 994 195 l 994 100 l 929 100 l 929 0 l 832 0 l 832 100 l 579 100 l 579 186 l 826 514 m 832 195 l 832 384 l 687 194 l 832 195 "},"#":{"x_min":124.796875,"x_max":944.765625,"ha":1070,"o":"m 484 973 l 448 734 l 693 734 l 729 973 l 848 973 l 812 734 l 944 734 l 944 615 l 794 615 l 755 357 l 944 357 l 944 238 l 737 238 l 702 0 l 583 0 l 617 238 l 373 238 l 339 0 l 219 0 l 254 238 l 124 238 l 124 357 l 271 357 l 311 615 l 124 615 l 124 734 l 328 734 l 365 973 l 484 973 m 392 357 l 636 357 l 674 615 l 430 615 l 392 357 "},"Ê":{"x_min":125,"x_max":833.703125,"ha":917,"o":"m 125 973 l 833 973 l 833 834 l 264 834 l 264 555 l 750 555 l 750 416 l 264 416 l 264 139 l 833 139 l 833 0 l 125 0 l 125 973 m 730 1097 l 588 1097 l 486 1188 l 383 1097 l 241 1097 l 403 1264 l 569 1264 l 730 1097 "},")":{"x_min":83.90625,"x_max":443,"ha":541,"o":"m 103 -160 q 252 -107 199 -160 q 305 41 305 -54 l 305 708 q 291 793 305 755 q 251 856 277 830 q 188 896 225 882 q 103 910 151 910 l 83 910 l 83 1042 l 103 1042 q 243 1017 180 1042 q 351 949 307 993 q 418 841 394 904 q 443 701 443 778 l 443 48 q 418 -91 443 -28 q 351 -199 394 -154 q 243 -267 307 -243 q 103 -292 180 -292 l 83 -292 l 83 -160 l 103 -160 "},"Å":{"x_min":40.75,"x_max":931.59375,"ha":973,"o":"m 298 1064 q 312 1138 298 1104 q 352 1197 327 1172 q 412 1237 377 1222 q 486 1252 446 1252 q 560 1237 525 1252 q 619 1197 594 1222 q 659 1138 644 1172 q 674 1064 674 1104 q 649 968 674 1011 q 583 901 624 925 l 931 0 l 792 0 l 706 224 l 265 224 l 179 0 l 40 0 l 388 901 q 322 968 347 925 q 298 1064 298 1011 m 319 363 l 652 363 l 486 791 l 319 363 m 397 1064 q 403 1028 397 1045 q 422 999 410 1012 q 450 980 434 987 q 486 972 467 972 q 522 980 505 972 q 550 999 538 987 q 569 1028 562 1012 q 576 1064 576 1045 q 569 1099 576 1082 q 550 1128 562 1115 q 522 1148 538 1141 q 486 1156 505 1156 q 450 1148 467 1156 q 422 1128 434 1141 q 403 1099 410 1115 q 397 1064 397 1082 "},"ø":{"x_min":111,"x_max":736,"ha":847,"o":"m 736 133 q 725 81 736 105 q 696 38 714 56 q 654 10 679 21 q 603 0 630 0 l 284 0 l 210 -139 l 111 -139 l 190 11 q 132 59 154 26 q 111 133 111 93 l 111 589 q 121 641 111 617 q 150 683 132 665 q 192 712 168 701 q 244 723 216 723 l 563 723 l 629 847 l 736 847 l 662 707 q 715 659 695 691 q 736 588 736 627 l 736 133 m 244 134 l 254 134 l 493 589 l 244 589 l 244 134 m 599 589 l 355 134 l 603 134 l 603 589 l 599 589 "},"â":{"x_min":111,"x_max":723,"ha":834,"o":"m 111 315 q 121 367 111 343 q 150 409 132 391 q 192 438 168 427 q 244 449 216 449 l 589 449 l 589 589 l 152 589 l 152 723 l 589 723 q 641 712 616 723 q 683 683 665 701 q 712 641 701 665 q 723 589 723 617 l 723 0 l 589 0 l 589 122 q 575 74 587 96 q 546 35 564 52 q 504 9 528 18 q 456 0 481 0 l 244 0 q 192 10 216 0 q 150 39 168 21 q 121 81 132 56 q 111 133 111 105 l 111 315 m 244 134 l 589 134 l 589 315 l 244 315 l 244 134 m 689 847 l 547 847 l 444 938 l 341 847 l 199 847 l 360 1014 l 528 1014 l 689 847 "},"}":{"x_min":83.15625,"x_max":511.3125,"ha":539,"o":"m 102 -160 q 212 -124 174 -160 q 250 -19 250 -89 q 247 25 250 1 q 243 75 245 50 q 238 126 240 101 q 236 173 236 151 q 258 295 236 245 q 328 375 280 346 q 258 454 280 403 q 236 576 236 505 q 238 624 236 599 q 243 674 240 649 q 247 724 245 700 q 250 770 250 749 q 212 875 250 840 q 102 910 174 910 l 83 910 l 83 1042 l 102 1042 q 220 1023 167 1042 q 310 970 273 1005 q 367 886 347 936 q 388 772 388 836 q 386 720 388 748 q 381 665 384 692 q 376 613 378 637 q 375 571 375 589 q 382 507 375 532 q 405 468 389 482 q 445 447 421 453 q 505 442 470 442 l 511 442 l 511 309 l 505 309 q 445 303 470 309 q 405 282 421 297 q 382 243 389 268 q 375 179 375 218 q 376 136 375 161 q 381 84 378 112 q 386 29 384 57 q 388 -22 388 1 q 367 -136 388 -86 q 310 -220 347 -186 q 220 -273 273 -255 q 102 -292 167 -292 l 83 -292 l 83 -160 l 102 -160 "},"Ä":{"x_min":41.828125,"x_max":930.15625,"ha":973,"o":"m 556 972 l 930 0 l 791 0 l 705 224 l 267 224 l 180 0 l 41 0 l 417 972 l 556 972 m 319 363 l 651 363 l 486 791 l 319 363 m 553 1244 l 700 1244 l 700 1097 l 553 1097 l 553 1244 m 271 1244 l 418 1244 l 418 1097 l 271 1097 l 271 1244 "},"¸":{"x_min":179.953125,"x_max":454,"ha":695,"o":"m 191 -156 l 335 45 l 434 45 l 359 -61 q 396 -69 378 -61 q 426 -89 413 -76 q 446 -120 439 -102 q 454 -156 454 -137 l 454 -262 q 446 -299 454 -282 q 426 -329 439 -316 q 395 -349 413 -342 q 359 -357 378 -357 l 179 -357 l 179 -263 l 359 -263 l 359 -156 l 191 -156 "},"a":{"x_min":111,"x_max":723,"ha":834,"o":"m 111 315 q 121 367 111 343 q 150 409 132 391 q 192 438 168 427 q 244 449 216 449 l 589 449 l 589 589 l 152 589 l 152 723 l 589 723 q 641 712 616 723 q 683 683 665 701 q 712 641 701 665 q 723 589 723 617 l 723 0 l 589 0 l 589 122 q 575 74 587 96 q 546 35 564 52 q 504 9 528 18 q 456 0 481 0 l 244 0 q 192 10 216 0 q 150 39 168 21 q 121 81 132 56 q 111 133 111 105 l 111 315 m 244 134 l 589 134 l 589 315 l 244 315 l 244 134 "},"=":{"x_min":111.234375,"x_max":869.484375,"ha":981,"o":"m 111 619 l 869 619 l 869 486 l 111 486 l 111 619 m 111 297 l 869 297 l 869 164 l 111 164 l 111 297 "},"N":{"x_min":125,"x_max":987,"ha":1112,"o":"m 264 0 l 125 0 l 125 973 l 264 973 l 848 218 l 848 973 l 987 973 l 987 0 l 848 0 l 264 754 l 264 0 "},"ú":{"x_min":111,"x_max":750,"ha":861,"o":"m 111 722 l 244 722 l 244 134 l 616 134 l 616 722 l 750 722 l 750 0 l 616 0 l 616 122 q 602 74 613 96 q 572 35 590 52 q 531 9 555 18 q 483 0 508 0 l 244 0 q 192 10 216 0 q 150 39 168 21 q 121 81 132 57 q 111 134 111 106 l 111 722 m 467 1000 l 670 1000 l 441 846 l 313 846 l 467 1000 "},"2":{"x_min":111,"x_max":847,"ha":958,"o":"m 250 834 l 250 708 l 111 708 l 111 833 q 121 887 111 862 q 151 931 132 913 q 196 961 170 950 q 249 973 221 973 l 690 973 q 743 961 718 973 q 787 931 769 950 q 817 887 806 913 q 829 833 829 862 l 829 656 q 823 605 829 627 q 806 564 818 582 q 776 532 794 546 q 731 505 757 518 l 250 279 l 250 139 l 708 139 l 708 264 l 847 264 l 847 0 l 111 0 l 111 255 q 116 306 111 284 q 134 346 122 329 q 164 379 145 364 q 207 405 182 393 l 690 632 l 690 834 l 250 834 "},"ü":{"x_min":111,"x_max":750,"ha":861,"o":"m 111 722 l 244 722 l 244 134 l 616 134 l 616 722 l 750 722 l 750 0 l 616 0 l 616 122 q 602 74 613 96 q 572 35 590 52 q 531 9 555 18 q 483 0 508 0 l 243 0 q 192 10 216 0 q 149 39 167 21 q 121 81 132 57 q 111 134 111 106 l 111 722 m 208 994 l 355 994 l 355 847 l 208 847 l 208 994 m 490 994 l 637 994 l 637 847 l 490 847 l 490 994 "},"¯":{"x_min":83.421875,"x_max":572.421875,"ha":656,"o":"m 83 973 l 572 973 l 572 860 l 83 860 l 83 973 "},"Z":{"x_min":83.421875,"x_max":866.765625,"ha":950,"o":"m 103 973 l 866 973 l 866 930 l 315 139 l 866 139 l 866 0 l 83 0 l 83 41 l 634 834 l 103 834 l 103 973 "},"u":{"x_min":111,"x_max":750,"ha":861,"o":"m 111 722 l 244 722 l 244 134 l 616 134 l 616 722 l 750 722 l 750 0 l 616 0 l 616 122 q 602 74 613 96 q 572 35 590 52 q 531 9 555 18 q 483 0 508 0 l 244 0 q 192 10 216 0 q 150 38 168 21 q 121 81 132 56 q 111 133 111 105 l 111 722 "},"Ó":{"x_min":125,"x_max":958,"ha":1083,"o":"m 958 139 q 947 85 958 110 q 917 40 936 59 q 872 10 898 21 q 819 0 847 0 l 264 0 q 210 10 235 0 q 165 40 184 21 q 135 85 146 59 q 125 139 125 110 l 125 833 q 135 887 125 862 q 165 931 146 913 q 210 961 184 950 q 264 973 235 973 l 819 973 q 872 961 847 973 q 917 931 898 950 q 947 887 936 913 q 958 833 958 862 l 958 139 m 264 834 l 264 139 l 819 139 l 819 834 l 264 834 m 572 1250 l 775 1250 l 545 1097 l 417 1097 l 572 1250 "},"k":{"x_min":111,"x_max":776.40625,"ha":762,"o":"m 588 0 l 244 308 l 244 0 l 111 0 l 111 1000 l 244 1000 l 244 437 l 560 722 l 748 722 l 360 373 l 776 0 l 588 0 "},"Ù":{"x_min":125,"x_max":958,"ha":1083,"o":"m 125 972 l 264 972 l 264 139 l 819 139 l 819 972 l 958 972 l 958 139 q 947 85 958 110 q 917 40 936 59 q 872 10 898 21 q 819 0 847 0 l 264 0 q 210 10 235 0 q 165 40 184 21 q 135 85 146 59 q 125 139 125 110 l 125 972 m 649 1097 l 522 1097 l 293 1250 l 495 1250 l 649 1097 "},"€":{"x_min":41.1875,"x_max":993,"ha":1091,"o":"m 41 645 l 187 645 l 187 834 q 198 887 187 862 q 228 932 209 913 q 272 961 246 950 q 326 973 297 973 l 855 973 q 908 961 883 973 q 952 931 933 950 q 982 887 971 913 q 993 833 993 862 l 993 736 l 855 736 l 855 834 l 326 834 l 326 645 l 808 645 l 727 532 l 326 532 l 326 440 l 658 440 l 577 327 l 326 327 l 326 139 l 855 139 l 855 236 l 993 236 l 993 139 q 982 85 993 110 q 952 40 971 59 q 908 10 933 21 q 855 0 883 0 l 326 0 q 272 10 297 0 q 228 40 246 21 q 198 84 209 59 q 187 138 187 110 l 187 327 l 41 327 l 41 440 l 187 440 l 187 532 l 41 532 l 41 645 "},"¢":{"x_min":111,"x_max":723,"ha":834,"o":"m 244 589 l 244 134 l 589 134 l 589 256 l 723 256 l 723 133 q 712 81 723 105 q 683 39 701 57 q 641 10 665 21 q 589 0 617 0 l 484 0 l 484 -151 l 350 -151 l 350 0 l 244 0 q 192 10 216 0 q 150 39 168 21 q 121 81 132 57 q 111 133 111 105 l 111 589 q 121 641 111 617 q 150 683 132 665 q 192 712 168 701 q 244 723 216 723 l 350 723 l 350 874 l 484 874 l 484 723 l 589 722 q 641 711 617 722 q 683 682 665 700 q 712 640 701 664 q 723 588 723 616 l 723 466 l 589 466 l 589 589 l 244 589 "},"ß":{"x_min":125,"x_max":830,"ha":913,"o":"m 696 134 l 696 301 l 503 301 q 452 311 476 301 q 410 340 428 322 q 381 382 392 358 q 371 434 371 406 l 371 515 q 376 566 371 543 q 394 606 382 588 q 424 638 405 624 q 467 665 442 653 l 653 754 l 653 867 l 259 867 l 259 0 l 125 0 l 125 867 q 135 919 125 895 q 163 961 146 943 q 206 990 181 979 q 258 1001 230 1001 l 653 1001 q 704 990 680 1001 q 747 961 729 979 q 775 919 764 943 q 786 867 786 895 l 786 777 q 780 726 786 748 q 763 685 775 703 q 733 653 752 667 q 689 627 714 639 l 504 538 l 504 435 l 696 435 q 748 424 724 435 q 790 395 772 413 q 819 353 808 378 q 830 301 830 329 l 830 133 q 819 81 830 105 q 790 39 808 57 q 748 10 772 21 q 696 0 724 0 l 371 0 l 371 134 l 696 134 "},"é":{"x_min":111,"x_max":723,"ha":834,"o":"m 723 293 l 244 293 l 244 134 l 723 134 l 723 0 l 244 0 q 192 10 216 0 q 150 39 168 21 q 121 81 132 57 q 111 133 111 105 l 111 589 q 121 641 111 617 q 150 683 132 665 q 192 712 168 701 q 244 723 216 723 l 589 723 q 641 712 616 723 q 683 683 665 701 q 712 641 701 665 q 723 589 723 617 l 723 293 m 244 589 l 244 427 l 589 427 l 589 589 l 244 589 m 447 1000 l 650 1000 l 421 846 l 293 846 l 447 1000 "},"s":{"x_min":97,"x_max":681,"ha":778,"o":"m 547 134 l 547 301 l 231 301 q 178 311 203 301 q 136 340 154 322 q 107 382 118 358 q 97 434 97 407 l 97 589 q 107 641 97 616 q 136 683 118 665 q 178 712 154 701 q 231 723 203 723 l 653 723 l 653 589 l 231 589 l 231 435 l 547 435 q 599 424 574 435 q 641 395 623 413 q 670 353 659 378 q 681 301 681 329 l 681 133 q 670 81 681 105 q 641 39 659 57 q 599 10 623 21 q 547 0 574 0 l 97 0 l 97 134 l 547 134 "},"B":{"x_min":125,"x_max":893,"ha":976,"o":"m 758 507 q 813 480 788 498 q 856 435 838 462 q 883 370 874 407 q 893 285 893 333 l 893 236 q 657 0 893 0 l 125 0 l 125 972 l 629 972 q 865 735 865 972 l 865 718 q 838 584 865 636 q 758 507 812 532 m 261 424 l 261 136 l 653 136 q 732 161 708 136 q 757 242 757 187 l 757 318 q 732 398 757 373 q 653 424 708 424 l 261 424 m 261 836 l 261 560 l 634 560 q 706 587 684 562 q 729 665 729 612 l 729 729 q 704 810 729 784 q 625 836 680 836 l 261 836 "},"?":{"x_min":83,"x_max":694,"ha":777,"o":"m 280 453 q 285 504 280 482 q 302 544 291 526 q 333 576 314 562 q 376 603 351 591 l 555 689 l 555 834 l 222 834 l 222 708 l 83 708 l 83 833 q 93 887 83 862 q 123 931 104 913 q 168 961 142 950 q 222 973 193 973 l 554 973 q 608 961 583 973 q 653 931 634 950 q 683 887 672 913 q 694 834 694 862 l 694 714 q 688 663 694 686 q 671 623 683 641 q 641 591 660 605 q 597 564 622 576 l 418 478 l 418 361 l 280 361 l 280 453 l 280 453 m 252 203 l 455 203 l 455 0 l 252 0 l 252 203 "},"H":{"x_min":125,"x_max":959,"ha":1084,"o":"m 959 973 l 959 0 l 820 0 l 820 416 l 264 416 l 264 0 l 125 0 l 125 973 l 264 973 l 264 555 l 820 555 l 820 973 l 959 973 "},"î":{"x_min":-59.6875,"x_max":429.3125,"ha":370,"o":"m 252 722 l 252 0 l 118 0 l 118 722 l 252 722 m 429 847 l 287 847 l 184 938 l 82 847 l -59 847 l 101 1014 l 267 1014 l 429 847 "},"c":{"x_min":111,"x_max":723,"ha":834,"o":"m 244 589 l 244 134 l 589 134 l 589 256 l 723 256 l 723 133 q 712 81 723 105 q 683 39 701 57 q 641 10 665 21 q 589 0 616 0 l 244 0 q 192 10 216 0 q 150 39 168 21 q 121 81 132 57 q 111 133 111 105 l 111 589 q 121 641 111 617 q 150 683 132 665 q 192 712 168 701 q 244 723 216 723 l 589 723 q 641 712 616 723 q 683 683 665 701 q 712 641 701 665 q 723 589 723 617 l 723 467 l 589 467 l 589 589 l 244 589 "},"¶":{"x_min":68.875,"x_max":837,"ha":962,"o":"m 408 -292 l 408 360 l 305 360 q 68 597 68 360 l 68 736 q 305 973 68 973 l 837 973 l 837 -292 l 698 -292 l 698 834 l 547 834 l 547 -292 l 408 -292 "},"−":{"x_min":111.234375,"x_max":869.484375,"ha":981,"o":"m 111 459 l 869 459 l 869 325 l 111 325 l 111 459 "},"¥":{"x_min":27.953125,"x_max":917.046875,"ha":945,"o":"m 111 480 l 343 479 l 27 973 l 189 973 l 472 518 l 755 973 l 917 973 l 601 480 l 833 480 l 833 367 l 542 367 l 542 276 l 833 276 l 833 163 l 542 163 l 542 0 l 403 0 l 403 163 l 111 163 l 111 276 l 403 276 l 403 367 l 111 367 l 111 480 "},"(":{"x_min":97,"x_max":457.109375,"ha":541,"o":"m 457 -160 l 457 -292 l 437 -292 q 297 -267 360 -292 q 189 -199 233 -243 q 121 -91 145 -154 q 97 48 97 -28 l 97 701 q 121 841 97 778 q 189 949 145 904 q 297 1017 233 993 q 437 1042 360 1042 l 457 1042 l 457 910 l 437 910 q 352 896 389 910 q 289 856 315 882 q 249 793 263 830 q 236 708 236 755 l 236 41 q 288 -107 236 -54 q 437 -160 341 -160 l 457 -160 "},"U":{"x_min":125,"x_max":958,"ha":1083,"o":"m 125 973 l 264 973 l 264 139 l 819 139 l 819 973 l 958 973 l 958 139 q 947 85 958 110 q 917 40 936 59 q 872 10 898 21 q 819 0 847 0 l 264 0 q 210 10 235 0 q 165 40 184 21 q 135 85 146 59 q 125 139 125 110 l 125 973 "},"Ñ":{"x_min":125,"x_max":987,"ha":1112,"o":"m 264 0 l 125 0 l 125 972 l 264 972 l 848 218 l 848 972 l 987 972 l 987 0 l 848 0 l 264 754 l 264 0 m 290 1099 q 302 1166 290 1134 q 336 1220 314 1197 q 388 1256 358 1243 q 455 1270 419 1270 q 519 1259 493 1270 q 569 1236 546 1248 q 612 1212 591 1223 q 661 1202 634 1202 q 708 1222 690 1202 q 727 1270 725 1242 l 820 1270 q 807 1202 819 1234 q 773 1148 795 1171 q 722 1112 752 1125 q 655 1099 692 1099 q 591 1109 617 1099 q 541 1133 564 1120 q 498 1156 519 1145 q 450 1167 477 1167 q 402 1146 420 1167 q 383 1099 385 1126 l 290 1099 "},"F":{"x_min":125,"x_max":833.703125,"ha":903,"o":"m 125 973 l 833 973 l 833 834 l 264 834 l 264 555 l 750 555 l 750 416 l 264 416 l 264 0 l 125 0 l 125 973 "},":":{"x_min":111,"x_max":314,"ha":425,"o":"m 111 203 l 314 203 l 314 0 l 111 0 l 111 203 m 111 722 l 314 722 l 314 519 l 111 519 l 111 722 "},"Û":{"x_min":125,"x_max":958,"ha":1083,"o":"m 125 972 l 264 972 l 264 139 l 819 139 l 819 972 l 958 972 l 958 139 q 947 85 958 110 q 917 40 936 59 q 872 10 898 21 q 819 0 847 0 l 264 0 q 210 10 235 0 q 165 40 184 21 q 135 85 146 59 q 125 139 125 110 l 125 972 m 785 1097 l 644 1097 l 541 1188 l 438 1097 l 297 1097 l 458 1264 l 625 1264 l 785 1097 "},"*":{"x_min":83.421875,"x_max":678.90625,"ha":762,"o":"m 255 406 l 162 473 l 301 652 l 83 714 l 119 823 l 331 746 l 323 973 l 438 973 l 430 746 l 642 823 l 678 714 l 461 652 l 600 473 l 507 406 l 380 595 l 255 406 "},"°":{"x_min":83,"x_max":525,"ha":608,"o":"m 83 764 q 100 850 83 810 q 148 920 118 890 q 218 968 178 950 q 304 986 258 986 q 389 968 349 986 q 460 920 429 950 q 507 850 490 890 q 525 764 525 810 q 507 679 525 719 q 460 609 490 639 q 389 561 429 579 q 304 544 349 544 q 218 561 258 544 q 148 609 178 579 q 100 679 118 639 q 83 764 83 719 m 192 765 q 200 719 192 741 q 224 682 208 698 q 259 657 239 666 q 304 648 279 648 q 348 657 328 648 q 384 682 369 666 q 407 719 399 698 q 416 765 416 741 q 407 810 416 789 q 384 847 399 831 q 348 872 369 863 q 304 882 328 882 q 259 872 279 882 q 224 847 239 863 q 200 810 208 831 q 192 765 192 789 "},"V":{"x_min":41.375,"x_max":944.765625,"ha":986,"o":"m 416 0 l 41 973 l 190 973 l 493 172 l 796 973 l 944 973 l 569 0 l 416 0 "},"å":{"x_min":111,"x_max":723,"ha":834,"o":"m 111 315 q 121 367 111 343 q 150 409 132 391 q 192 438 168 427 q 244 449 216 449 l 589 449 l 589 589 l 152 589 l 152 723 l 589 723 q 641 712 616 723 q 683 683 665 701 q 712 641 701 665 q 723 589 723 617 l 723 0 l 589 0 l 588 122 q 575 74 586 96 q 545 35 563 52 q 504 9 527 18 q 455 0 481 0 l 244 0 q 192 10 216 0 q 150 39 168 21 q 121 81 132 56 q 111 133 111 105 l 111 315 m 243 1000 q 257 1074 243 1039 q 297 1133 272 1108 q 356 1173 322 1158 q 430 1188 391 1188 q 504 1173 470 1188 q 564 1133 538 1158 q 603 1074 589 1108 q 618 1000 618 1039 q 603 926 618 960 q 564 866 589 891 q 504 826 538 841 q 430 812 470 812 q 356 826 391 812 q 297 866 322 841 q 257 926 272 891 q 243 1000 243 960 m 244 134 l 589 134 l 589 315 l 244 315 l 244 134 m 342 1000 q 348 964 342 981 q 367 935 355 948 q 395 915 379 922 q 431 908 411 908 q 466 915 450 908 q 494 935 482 922 q 513 964 506 948 q 520 1000 520 981 q 513 1035 520 1018 q 494 1064 506 1051 q 466 1084 482 1077 q 431 1092 450 1092 q 395 1084 411 1092 q 367 1064 379 1077 q 348 1035 355 1051 q 342 1000 342 1018 "}," ":{"x_min":0,"x_max":0,"ha":416},"0":{"x_min":125,"x_max":889,"ha":1014,"o":"m 889 139 q 878 85 889 110 q 848 40 867 59 q 803 10 829 21 q 750 0 778 0 l 264 0 q 210 10 235 0 q 165 40 184 21 q 135 85 146 59 q 125 139 125 110 l 125 833 q 135 887 125 862 q 165 931 146 913 q 210 961 184 950 q 264 973 235 973 l 750 973 q 803 961 778 973 q 848 931 829 950 q 878 887 867 913 q 889 833 889 862 l 889 139 m 264 834 l 264 139 l 750 139 l 750 834 l 264 834 "},"¾":{"x_min":97,"x_max":1190.109375,"ha":1287,"o":"m 313 0 l 958 972 l 1073 972 l 422 0 l 313 0 m 1021 514 l 1125 514 l 1125 195 l 1190 195 l 1190 100 l 1125 100 l 1125 0 l 1028 0 l 1028 100 l 775 100 l 775 186 l 1021 514 m 1028 195 l 1028 384 l 883 195 l 1028 195 m 97 633 l 193 633 l 193 592 q 201 563 193 572 q 230 554 210 554 l 372 554 q 401 563 392 554 q 410 592 410 572 l 410 630 q 401 660 410 651 q 372 669 392 669 l 241 669 l 241 766 l 369 766 q 395 776 387 767 q 403 805 403 785 l 403 837 q 394 866 403 856 q 365 876 385 876 l 237 876 q 208 866 217 876 q 200 837 200 857 l 200 797 l 104 797 l 104 840 q 235 972 104 972 l 366 972 q 498 839 498 972 l 498 831 q 488 769 498 795 q 456 725 478 742 q 492 682 480 710 q 505 613 505 655 l 505 589 q 373 458 505 458 l 229 458 q 97 589 97 458 l 97 633 "},"@":{"x_min":125,"x_max":1348,"ha":1473,"o":"m 437 547 q 447 599 437 575 q 476 641 458 623 q 518 670 494 659 q 570 681 542 681 l 754 681 q 804 670 780 681 q 846 643 828 660 q 876 602 864 625 q 888 552 887 578 l 888 681 l 1021 681 l 1021 134 l 1214 134 l 1214 637 q 1200 722 1214 685 q 1160 785 1186 759 q 1097 825 1134 811 q 1012 839 1060 839 l 460 839 q 375 825 412 839 q 312 785 338 811 q 272 722 286 759 q 259 637 259 685 l 259 48 q 272 -37 259 0 q 311 -102 286 -75 q 374 -143 337 -129 q 460 -158 412 -158 l 1182 -158 q 1171 -209 1182 -184 q 1142 -251 1161 -233 q 1099 -281 1124 -270 q 1049 -292 1075 -292 l 465 -292 q 325 -267 388 -292 q 217 -199 262 -243 q 149 -91 173 -154 q 125 48 125 -28 l 125 632 q 149 772 125 709 q 217 880 173 835 q 325 948 262 924 q 465 973 388 973 l 1007 973 q 1147 948 1084 973 q 1255 880 1210 924 q 1323 772 1299 835 q 1348 632 1348 709 l 1348 133 q 1337 81 1348 105 q 1308 39 1326 57 q 1266 10 1290 21 q 1214 0 1242 0 l 1020 0 q 971 9 994 0 q 930 35 947 19 q 901 74 912 52 q 888 122 890 97 q 874 74 885 97 q 844 35 862 52 q 803 9 826 19 q 754 0 780 0 l 570 0 q 518 10 542 0 q 476 39 494 21 q 447 81 458 56 q 437 133 437 105 l 437 547 m 888 547 l 571 547 l 571 134 l 888 134 l 888 547 "},"ö":{"x_min":111,"x_max":735,"ha":847,"o":"m 735 133 q 724 81 735 105 q 696 39 714 57 q 654 10 678 21 q 602 0 629 0 l 243 0 q 192 10 216 0 q 149 39 167 21 q 121 81 132 57 q 111 133 111 105 l 111 589 q 121 641 111 617 q 149 683 132 665 q 192 712 167 701 q 243 723 216 723 l 602 723 q 654 712 629 723 q 696 683 678 701 q 724 641 714 665 q 735 589 735 617 l 735 133 m 244 589 l 244 134 l 602 134 l 602 589 l 244 589 m 490 994 l 637 994 l 637 847 l 490 847 l 490 994 m 208 994 l 355 994 l 355 847 l 208 847 l 208 994 "},"i":{"x_min":111,"x_max":259,"ha":370,"o":"m 252 722 l 252 0 l 118 0 l 118 722 l 252 722 m 111 1000 l 259 1000 l 259 861 l 111 861 l 111 1000 "},"Õ":{"x_min":125,"x_max":958,"ha":1083,"o":"m 958 139 q 947 85 958 110 q 917 40 936 59 q 872 10 898 21 q 819 0 847 0 l 264 0 q 210 10 235 0 q 165 40 184 21 q 135 85 146 59 q 125 139 125 110 l 125 833 q 135 887 125 862 q 165 931 146 913 q 210 961 184 950 q 264 973 235 973 l 819 973 q 872 961 847 973 q 917 931 898 950 q 947 887 936 913 q 958 833 958 862 l 958 139 m 264 834 l 264 139 l 819 139 l 819 834 l 264 834 m 276 1099 q 288 1166 276 1134 q 322 1220 301 1197 q 374 1256 344 1243 q 441 1270 404 1270 q 505 1259 479 1270 q 554 1236 532 1248 q 598 1212 577 1223 q 647 1202 619 1202 q 694 1222 676 1202 q 714 1270 712 1242 l 807 1270 q 794 1202 806 1234 q 760 1148 781 1171 q 708 1112 738 1125 q 641 1099 678 1099 q 577 1109 603 1099 q 528 1133 550 1120 q 484 1156 505 1145 q 436 1167 463 1167 q 389 1146 406 1167 q 369 1099 371 1126 l 276 1099 "},"þ":{"x_min":111,"x_max":750,"ha":861,"o":"m 750 133 q 739 81 750 105 q 710 39 728 57 q 668 10 692 21 q 616 0 643 0 l 244 0 l 244 -292 l 111 -292 l 111 1000 l 244 1000 l 243 600 q 257 648 245 626 q 286 687 269 670 q 327 713 304 703 q 377 723 351 723 l 616 723 q 668 712 643 723 q 710 683 692 701 q 739 641 728 665 q 750 589 750 617 l 750 133 m 616 134 l 616 589 l 244 589 l 244 134 l 616 134 "},"]":{"x_min":83.90625,"x_max":443,"ha":568,"o":"m 305 910 l 83 910 l 83 1042 l 443 1042 l 443 -292 l 83 -292 l 83 -160 l 305 -160 l 305 910 "},"m":{"x_min":111,"x_max":1123,"ha":1234,"o":"m 684 589 l 684 0 l 550 0 l 550 589 l 244 589 l 244 0 l 111 0 l 111 723 l 244 723 l 244 595 q 256 645 245 621 q 285 685 267 668 q 326 713 303 703 q 377 723 350 723 l 550 723 q 600 713 576 723 q 642 685 624 703 q 672 645 660 668 q 684 595 683 621 q 695 645 685 621 q 724 685 706 668 q 766 713 742 703 q 816 723 789 723 l 989 723 q 1041 712 1017 723 q 1083 683 1066 701 q 1112 641 1101 665 q 1123 589 1123 617 l 1123 0 l 989 0 l 989 589 l 684 589 "},"8":{"x_min":97,"x_max":858,"ha":955,"o":"m 613 560 q 686 587 664 562 q 708 665 708 612 l 708 729 q 683 810 708 784 q 604 836 659 836 l 350 836 q 271 810 295 836 q 247 729 247 784 l 247 665 q 269 587 247 612 q 341 560 291 562 l 613 560 m 617 136 q 697 161 673 136 q 722 242 722 187 l 722 318 q 697 398 722 373 q 617 424 673 424 l 337 424 q 257 398 281 424 q 233 318 233 373 l 233 242 q 257 161 233 187 q 337 136 281 136 l 617 136 m 333 0 q 97 236 97 0 l 97 285 q 129 430 97 375 q 223 504 161 485 q 139 583 168 529 q 111 718 111 636 l 111 735 q 346 972 111 972 l 608 972 q 844 735 844 972 l 844 718 q 815 583 844 636 q 731 504 786 529 q 825 430 793 485 q 858 285 858 375 l 858 236 q 622 0 858 0 l 333 0 "},"R":{"x_min":125,"x_max":903,"ha":1000,"o":"m 893 625 q 719 394 893 422 l 903 0 l 749 0 l 568 389 l 264 389 l 264 0 l 125 0 l 125 973 l 657 973 q 893 736 893 973 l 893 625 m 264 528 l 649 528 q 729 552 705 528 q 754 632 754 576 l 754 729 q 729 809 754 785 q 649 834 705 834 l 264 834 l 264 528 "},"á":{"x_min":111,"x_max":723,"ha":834,"o":"m 111 315 q 121 367 111 343 q 150 409 132 391 q 192 438 168 427 q 244 449 216 449 l 589 449 l 589 589 l 152 589 l 152 723 l 589 723 q 641 712 616 723 q 683 683 665 701 q 712 641 701 665 q 723 589 723 617 l 723 0 l 589 0 l 589 122 q 575 74 587 96 q 546 35 564 52 q 504 9 528 18 q 456 0 481 0 l 244 0 q 192 10 216 0 q 150 39 168 21 q 121 81 132 56 q 111 133 111 105 l 111 315 m 244 134 l 589 134 l 589 315 l 244 315 l 244 134 m 461 1000 l 664 1000 l 434 846 l 307 846 l 461 1000 "},"×":{"x_min":83.421875,"x_max":830.828125,"ha":914,"o":"m 830 672 l 550 391 l 830 110 l 737 18 l 457 298 l 176 18 l 83 110 l 364 391 l 83 672 l 176 765 l 457 484 l 737 765 l 830 672 "},"o":{"x_min":111,"x_max":736,"ha":847,"o":"m 736 133 q 725 81 736 105 q 696 39 714 57 q 654 10 679 21 q 603 0 630 0 l 244 0 q 192 10 216 0 q 150 39 168 21 q 121 81 132 57 q 111 133 111 105 l 111 589 q 121 641 111 617 q 150 683 132 665 q 192 712 168 701 q 244 723 216 723 l 603 723 q 654 712 630 723 q 696 683 679 701 q 725 641 714 665 q 736 589 736 617 l 736 133 m 244 589 l 244 134 l 603 134 l 603 589 l 244 589 "},"5":{"x_min":69,"x_max":803,"ha":886,"o":"m 803 235 q 743 58 800 117 q 566 0 685 0 l 305 0 q 69 235 69 0 l 69 294 l 205 294 l 205 242 q 229 161 205 187 q 309 136 253 136 l 562 136 q 642 161 618 136 q 667 242 667 187 l 667 373 q 642 453 667 428 q 562 479 618 479 l 97 479 l 97 973 l 777 973 l 777 834 l 236 834 l 236 615 l 566 615 q 744 557 686 615 q 803 379 803 499 l 803 235 "},"õ":{"x_min":111,"x_max":736,"ha":847,"o":"m 736 133 q 725 81 736 105 q 696 39 714 57 q 654 10 679 21 q 603 0 630 0 l 244 0 q 192 10 216 0 q 150 39 168 21 q 121 81 132 57 q 111 133 111 105 l 111 589 q 121 641 111 617 q 150 683 132 665 q 192 712 168 701 q 244 723 216 723 l 603 723 q 654 712 630 723 q 696 683 679 701 q 725 641 714 665 q 736 589 736 617 l 736 133 m 244 589 l 244 134 l 603 134 l 603 589 l 244 589 m 158 848 q 170 915 158 883 q 204 969 182 946 q 256 1005 226 992 q 323 1019 286 1019 q 387 1008 361 1019 q 436 985 414 997 q 480 961 459 972 q 528 951 501 951 q 575 971 558 951 q 596 1019 593 991 l 689 1019 q 676 951 688 983 q 642 897 663 920 q 590 861 620 874 q 523 848 559 848 q 478 853 498 848 q 441 865 458 858 q 409 882 424 873 q 380 899 394 891 q 350 911 365 906 q 317 917 335 917 q 270 896 288 917 q 251 848 253 876 l 158 848 "},"7":{"x_min":55.609375,"x_max":805.734375,"ha":819,"o":"m 162 0 l 598 834 l 55 834 l 55 973 l 805 973 l 805 930 l 323 0 l 162 0 "},"K":{"x_min":125,"x_max":944.9375,"ha":946,"o":"m 264 973 l 264 553 l 727 973 l 923 973 l 397 496 l 944 0 l 748 0 l 264 437 l 264 0 l 125 0 l 125 973 l 264 973 "},",":{"x_min":111,"x_max":314,"ha":425,"o":"m 209 -207 l 111 -207 l 210 0 l 111 0 l 111 203 l 314 203 l 314 0 l 209 -207 "},"d":{"x_min":111,"x_max":750,"ha":861,"o":"m 111 589 q 121 641 111 617 q 150 683 132 665 q 192 712 168 701 q 244 723 216 723 l 616 723 l 616 1000 l 750 1000 l 750 0 l 616 0 l 616 122 q 602 74 614 96 q 573 35 591 52 q 532 9 555 18 q 483 0 509 0 l 244 0 q 192 10 216 0 q 150 39 168 21 q 121 81 132 57 q 111 133 111 105 l 111 589 m 244 134 l 616 134 l 616 589 l 244 589 l 244 134 "},"¨":{"x_min":83,"x_max":513,"ha":596,"o":"m 366 994 l 513 994 l 513 847 l 366 847 l 366 994 m 83 994 l 230 994 l 230 847 l 83 847 l 83 994 "},"Ô":{"x_min":125,"x_max":958,"ha":1083,"o":"m 958 139 q 947 85 958 110 q 917 40 936 59 q 872 10 898 21 q 819 0 847 0 l 264 0 q 210 10 235 0 q 165 40 184 21 q 135 85 146 59 q 125 139 125 110 l 125 833 q 135 887 125 862 q 165 931 146 913 q 210 961 184 950 q 264 973 235 973 l 819 973 q 872 961 847 973 q 917 931 898 950 q 947 887 936 913 q 958 833 958 862 l 958 139 m 264 834 l 264 139 l 819 139 l 819 834 l 264 834 m 785 1097 l 644 1097 l 541 1188 l 438 1097 l 297 1097 l 458 1264 l 625 1264 l 785 1097 "},"E":{"x_min":125,"x_max":833.703125,"ha":917,"o":"m 125 973 l 833 973 l 833 834 l 264 834 l 264 555 l 750 555 l 750 416 l 264 416 l 264 139 l 833 139 l 833 0 l 125 0 l 125 973 "},"Y":{"x_min":27.953125,"x_max":917.046875,"ha":945,"o":"m 189 973 l 472 518 l 755 973 l 917 973 l 542 386 l 542 0 l 403 0 l 403 386 l 27 973 l 189 973 "},"\"":{"x_min":111,"x_max":570,"ha":681,"o":"m 247 517 l 154 517 l 111 825 l 111 973 l 291 973 l 291 825 l 247 517 m 525 517 l 433 517 l 389 825 l 389 973 l 570 973 l 570 825 l 525 517 "},"ê":{"x_min":111,"x_max":723,"ha":834,"o":"m 723 293 l 244 293 l 244 134 l 723 134 l 723 0 l 244 0 q 192 10 216 0 q 150 39 168 21 q 121 81 132 57 q 111 133 111 105 l 111 589 q 121 641 111 617 q 150 683 132 665 q 192 712 168 701 q 244 723 216 723 l 589 723 q 641 712 616 723 q 683 683 665 701 q 712 641 701 665 q 723 589 723 617 l 723 293 m 244 589 l 244 427 l 589 427 l 589 589 l 244 589 m 661 847 l 519 847 l 416 938 l 314 847 l 172 847 l 333 1014 l 500 1014 l 661 847 "},"Ï":{"x_min":-20,"x_max":409,"ha":389,"o":"m 263 972 l 263 0 l 124 0 l 124 972 l 263 972 m 262 1244 l 409 1244 l 409 1097 l 262 1097 l 262 1244 m -20 1244 l 127 1244 l 127 1097 l -20 1097 l -20 1244 "},"Â":{"x_min":41.375,"x_max":930.515625,"ha":973,"o":"m 555 972 l 930 0 l 791 0 l 705 224 l 266 224 l 180 0 l 41 0 l 416 972 l 555 972 m 319 363 l 651 363 l 486 791 l 319 363 m 730 1097 l 588 1097 l 486 1188 l 383 1097 l 241 1097 l 402 1264 l 569 1264 l 730 1097 "},"Í":{"x_min":71.890625,"x_max":429.3125,"ha":389,"o":"m 264 972 l 264 0 l 125 0 l 125 972 l 264 972 m 226 1250 l 429 1250 l 200 1097 l 71 1097 l 226 1250 "},"´":{"x_min":83.421875,"x_max":440.171875,"ha":524,"o":"m 237 1000 l 440 1000 l 210 847 l 83 847 l 237 1000 "},"ì":{"x_min":-48.828125,"x_max":308.59375,"ha":370,"o":"m 252 722 l 252 0 l 118 0 l 118 722 l 252 722 m 308 846 l 180 846 l -48 1000 l 153 1000 l 308 846 "},"±":{"x_min":111.34375,"x_max":869.65625,"ha":981,"o":"m 557 771 l 557 514 l 869 514 l 869 380 l 557 380 l 557 146 l 869 146 l 869 12 l 111 12 l 111 146 l 424 146 l 424 380 l 111 380 l 111 514 l 424 514 l 424 771 l 557 771 "},"Ú":{"x_min":125,"x_max":958,"ha":1083,"o":"m 125 972 l 264 972 l 264 139 l 819 139 l 819 972 l 958 972 l 958 139 q 947 85 958 110 q 917 40 936 59 q 872 10 898 21 q 819 0 847 0 l 264 0 q 210 10 235 0 q 165 40 184 21 q 135 85 146 59 q 125 139 125 110 l 125 972 m 585 1250 l 788 1250 l 559 1097 l 432 1097 l 585 1250 "},"|":{"x_min":125,"x_max":264,"ha":389,"o":"m 264 1042 l 264 -292 l 125 -292 l 125 1042 l 264 1042 "},"§":{"x_min":125,"x_max":834,"ha":959,"o":"m 271 431 q 220 443 244 432 q 177 473 195 454 q 149 516 160 492 q 139 570 139 541 l 139 833 q 149 887 139 862 q 179 931 160 913 q 224 961 198 950 q 278 973 249 973 l 694 973 q 748 961 723 973 q 793 931 774 950 q 823 887 812 913 q 834 833 834 862 l 834 708 l 695 708 l 695 834 l 278 834 l 278 570 l 694 570 q 748 559 723 570 q 793 529 774 548 q 823 484 812 510 q 834 430 834 459 l 834 167 l 700 167 q 752 154 728 166 q 795 124 777 143 q 823 80 812 105 q 834 28 834 55 l 834 -235 q 823 -289 834 -264 q 793 -334 812 -315 q 748 -364 774 -353 q 694 -375 723 -375 l 264 -375 q 210 -364 235 -375 q 165 -334 184 -353 q 135 -289 146 -315 q 125 -235 125 -264 l 125 -111 l 264 -111 l 264 -236 l 695 -236 l 695 28 l 278 28 q 224 38 249 28 q 179 68 198 49 q 149 113 160 87 q 139 167 139 138 l 139 431 l 271 431 m 695 431 l 278 431 l 278 167 l 695 167 l 695 431 "},"Ý":{"x_min":27.953125,"x_max":917.046875,"ha":945,"o":"m 189 972 l 472 518 l 755 972 l 917 972 l 542 385 l 542 0 l 403 0 l 403 385 l 27 972 l 189 972 m 530 1250 l 733 1250 l 503 1097 l 376 1097 l 530 1250 "},"b":{"x_min":111,"x_max":750,"ha":861,"o":"m 750 133 q 739 81 750 105 q 710 39 728 57 q 668 10 692 21 q 616 0 643 0 l 244 0 q 192 10 216 0 q 150 38 168 21 q 121 81 132 56 q 111 133 111 105 l 111 1000 l 244 1000 l 243 595 q 256 645 245 621 q 284 685 267 668 q 326 713 302 703 q 377 723 350 723 l 616 723 q 668 712 643 723 q 710 683 692 701 q 739 641 728 665 q 750 589 750 617 l 750 133 m 244 589 l 244 134 l 616 134 l 616 589 l 244 589 "},"q":{"x_min":111,"x_max":750,"ha":861,"o":"m 111 589 q 121 641 111 617 q 150 683 132 665 q 192 712 168 701 q 244 723 216 723 l 616 723 q 668 712 643 723 q 710 683 692 701 q 739 641 728 665 q 750 589 750 617 l 750 -292 l 616 -292 l 616 127 q 604 78 615 101 q 575 37 593 55 q 533 10 557 20 q 483 0 509 0 l 244 0 q 192 10 216 0 q 150 39 168 21 q 121 81 132 57 q 111 133 111 105 l 111 589 m 616 134 l 616 589 l 244 589 l 244 134 l 616 134 "},"Ö":{"x_min":125,"x_max":958,"ha":1083,"o":"m 958 139 q 947 85 958 110 q 917 40 936 59 q 872 10 898 21 q 819 0 847 0 l 263 0 q 210 10 235 0 q 165 40 184 21 q 135 85 146 59 q 125 139 125 110 l 125 833 q 135 887 125 862 q 165 931 146 913 q 210 961 184 950 q 263 973 235 973 l 819 973 q 872 961 847 973 q 917 931 898 950 q 947 887 936 913 q 958 833 958 862 l 958 139 m 264 834 l 264 139 l 819 139 l 819 834 l 264 834 m 608 1244 l 755 1244 l 755 1097 l 608 1097 l 608 1244 m 326 1244 l 473 1244 l 473 1097 l 326 1097 l 326 1244 "},"z":{"x_min":83.421875,"x_max":694.5,"ha":778,"o":"m 96 723 l 694 723 l 694 687 l 309 134 l 694 134 l 694 0 l 83 0 l 83 35 l 467 589 l 96 589 l 96 723 "},"™":{"x_min":68.9375,"x_max":1123,"ha":1248,"o":"m 828 505 l 668 785 l 668 505 l 571 505 l 571 973 l 669 973 l 846 658 l 1023 973 l 1123 973 l 1123 505 l 1025 505 l 1025 785 l 865 505 l 828 505 m 68 973 l 486 973 l 486 882 l 326 882 l 326 505 l 229 505 l 229 882 l 68 882 l 68 973 "},"ã":{"x_min":111,"x_max":723,"ha":834,"o":"m 111 315 q 121 367 111 343 q 150 409 132 391 q 192 438 168 427 q 244 449 216 449 l 589 449 l 589 589 l 152 589 l 152 723 l 589 723 q 641 712 616 723 q 683 683 665 701 q 712 641 701 665 q 723 589 723 617 l 723 0 l 589 0 l 589 122 q 575 74 587 96 q 546 35 564 52 q 504 9 528 18 q 456 0 481 0 l 244 0 q 192 10 216 0 q 150 39 168 21 q 121 81 132 56 q 111 133 111 105 l 111 315 m 244 134 l 589 134 l 589 315 l 244 315 l 244 134 m 165 848 q 177 915 165 883 q 211 969 189 946 q 263 1005 233 992 q 330 1019 293 1019 q 394 1008 368 1019 q 443 985 421 997 q 487 961 465 972 q 536 951 509 951 q 583 971 565 951 q 602 1019 600 991 l 695 1019 q 682 951 695 983 q 649 897 670 920 q 597 861 627 874 q 530 848 567 848 q 485 853 505 848 q 448 865 465 858 q 416 882 431 873 q 387 899 402 891 q 358 911 373 906 q 324 917 343 917 q 278 896 295 917 q 258 848 260 876 l 165 848 "},"æ":{"x_min":111,"x_max":1199.46875,"ha":1310,"o":"m 588 315 l 244 315 l 244 134 l 588 134 l 588 315 m 721 589 l 721 427 l 1066 427 l 1066 589 l 721 589 m 655 629 q 673 667 661 650 q 701 696 685 684 q 738 716 718 709 q 781 723 758 723 l 1066 723 q 1117 712 1093 723 q 1159 683 1142 701 q 1188 641 1177 665 q 1199 589 1199 617 l 1199 293 l 722 293 l 722 134 l 1199 134 l 1199 0 l 722 0 q 670 10 694 0 q 628 37 646 20 q 599 78 610 55 q 588 127 589 101 q 576 78 587 101 q 547 37 564 55 q 505 10 529 20 q 455 0 481 0 l 244 0 q 192 10 216 0 q 150 39 168 21 q 121 81 132 56 q 111 133 111 105 l 111 315 q 121 367 111 343 q 149 409 132 391 q 192 438 167 427 q 243 449 216 449 l 588 449 l 588 589 l 151 589 l 151 723 l 528 723 q 571 716 550 723 q 608 696 591 709 q 636 667 624 684 q 655 629 649 650 "},"®":{"x_min":69,"x_max":1070,"ha":1139,"o":"m 69 486 q 106 686 69 595 q 210 844 143 778 q 369 948 277 911 q 569 986 461 986 q 770 948 679 986 q 928 844 862 911 q 1032 686 995 778 q 1070 486 1070 595 q 1032 285 1070 377 q 928 127 995 193 q 770 23 862 60 q 569 -14 679 -14 q 369 23 461 -14 q 210 127 277 60 q 106 285 143 193 q 69 486 69 377 m 569 82 q 732 111 658 82 q 858 195 805 141 q 940 322 911 248 q 970 486 970 397 q 940 649 970 574 q 858 776 911 723 q 732 860 805 830 q 569 890 658 890 q 406 860 479 890 q 279 776 332 830 q 198 649 227 723 q 169 486 169 574 q 198 322 169 397 q 279 195 227 248 q 406 111 332 141 q 569 82 479 82 m 790 562 q 694 435 790 449 l 796 218 l 693 218 l 592 432 l 462 432 l 462 218 l 368 218 l 368 754 l 661 754 q 790 623 790 754 l 790 562 m 462 528 l 642 528 q 684 539 673 528 q 696 580 696 551 l 696 605 q 684 648 696 636 q 642 660 673 660 l 462 660 l 462 528 "},"É":{"x_min":125,"x_max":833.703125,"ha":917,"o":"m 125 973 l 833 973 l 833 834 l 264 834 l 264 555 l 750 555 l 750 416 l 264 416 l 264 139 l 833 139 l 833 0 l 125 0 l 125 973 m 489 1250 l 691 1250 l 462 1097 l 335 1097 l 489 1250 "},"~":{"x_min":83.421875,"x_max":737.234375,"ha":821,"o":"m 83 330 q 99 413 84 374 q 141 480 114 451 q 205 524 168 508 q 287 541 242 541 q 366 528 333 541 q 426 499 399 515 q 480 469 454 482 q 540 457 507 457 q 573 463 558 457 q 598 482 588 470 q 615 508 609 493 q 622 541 621 523 l 737 541 q 721 458 736 496 q 679 391 706 419 q 615 346 652 362 q 533 330 577 330 q 454 342 486 330 q 393 372 421 355 q 340 401 366 388 q 280 414 314 414 q 247 407 262 414 q 222 388 233 400 q 205 362 211 377 q 198 330 200 347 l 83 330 "},"³":{"x_min":83,"x_max":492,"ha":575,"o":"m 83 633 l 179 633 l 179 592 q 216 554 179 554 l 358 554 q 396 592 396 554 l 396 630 q 386 660 396 651 q 358 669 377 669 l 228 669 l 228 766 l 355 766 q 381 776 373 767 q 389 805 389 785 l 389 837 q 380 866 389 856 q 351 876 371 876 l 224 876 q 186 837 186 876 l 186 797 l 90 797 l 90 840 q 222 972 90 972 l 352 972 q 485 839 485 972 l 485 831 q 474 769 485 795 q 443 725 464 742 q 479 682 466 710 q 492 613 492 655 l 492 589 q 459 490 492 522 q 359 458 427 458 l 214 458 q 83 589 83 458 l 83 633 "},"¡":{"x_min":97,"x_max":300,"ha":398,"o":"m 237 319 l 293 -292 l 104 -292 l 159 319 l 237 319 m 97 681 l 300 681 l 300 478 l 97 478 l 97 681 "},"[":{"x_min":125,"x_max":485.09375,"ha":568,"o":"m 125 1042 l 485 1042 l 485 910 l 264 910 l 264 -160 l 485 -160 l 485 -292 l 125 -292 l 125 1042 "},"L":{"x_min":125,"x_max":763.84375,"ha":806,"o":"m 264 973 l 264 139 l 763 139 l 763 0 l 125 0 l 125 973 l 264 973 "}," ":{"x_min":0,"x_max":0,"ha":416},"%":{"x_min":97,"x_max":1235,"ha":1332,"o":"m 530 610 q 519 556 530 581 q 489 511 508 530 q 445 481 470 492 q 391 471 420 471 l 235 471 q 182 481 207 471 q 137 511 156 492 q 108 556 119 530 q 97 610 97 581 l 97 833 q 108 887 97 862 q 137 931 119 913 q 182 961 156 950 q 235 973 207 973 l 391 973 q 445 961 420 973 q 489 931 470 950 q 519 887 508 913 q 530 833 530 862 l 530 610 m 255 0 l 948 973 l 1076 973 l 383 0 l 255 0 m 216 853 l 216 590 l 411 590 l 411 853 l 216 853 m 1235 138 q 1224 85 1235 110 q 1194 40 1213 59 q 1149 10 1175 21 q 1096 0 1124 0 l 940 0 q 886 10 911 0 q 842 40 861 21 q 812 85 823 59 q 802 138 802 110 l 802 362 q 812 416 802 391 q 842 460 823 441 q 886 490 861 479 q 940 501 911 501 l 1096 501 q 1149 490 1124 501 q 1194 460 1175 479 q 1224 416 1213 441 q 1235 362 1235 391 l 1235 138 m 921 382 l 921 119 l 1116 119 l 1116 382 l 921 382 "},"P":{"x_min":125,"x_max":893,"ha":962,"o":"m 125 0 l 125 973 l 657 973 q 893 736 893 973 l 893 597 q 657 361 893 361 l 264 361 l 264 0 l 125 0 m 264 500 l 649 500 q 729 524 705 500 q 754 604 754 548 l 754 729 q 729 809 754 785 q 649 834 705 834 l 264 834 l 264 500 "},"À":{"x_min":41.375,"x_max":930.515625,"ha":973,"o":"m 555 972 l 930 0 l 791 0 l 705 224 l 266 224 l 180 0 l 41 0 l 416 972 l 555 972 m 319 363 l 651 363 l 486 791 l 319 363 m 608 1097 l 480 1097 l 251 1250 l 454 1250 l 608 1097 "},"_":{"x_min":-1.359375,"x_max":862.703125,"ha":861,"o":"m -1 -292 l 862 -292 l 862 -398 l -1 -398 l -1 -292 "},"ñ":{"x_min":111,"x_max":750,"ha":861,"o":"m 750 0 l 616 0 l 616 589 l 244 589 l 244 0 l 111 0 l 111 723 l 244 723 l 243 595 q 256 645 245 621 q 284 685 267 668 q 326 713 302 703 q 377 723 350 723 l 616 723 q 668 712 643 723 q 710 683 692 701 q 739 641 728 665 q 750 589 750 617 l 750 0 m 165 848 q 177 915 165 883 q 211 969 189 946 q 263 1005 233 992 q 330 1019 293 1019 q 394 1008 368 1019 q 443 985 421 997 q 487 961 465 972 q 536 951 509 951 q 583 971 565 951 q 602 1019 600 991 l 695 1019 q 682 951 695 983 q 649 897 670 920 q 597 861 627 874 q 530 848 567 848 q 485 853 505 848 q 448 865 465 858 q 416 882 431 873 q 387 899 402 891 q 358 911 373 906 q 324 917 343 917 q 278 896 295 917 q 258 848 260 876 l 165 848 "},"+":{"x_min":111.34375,"x_max":869.65625,"ha":981,"o":"m 557 771 l 557 459 l 869 459 l 869 325 l 557 325 l 557 12 l 424 12 l 424 325 l 111 325 l 111 459 l 424 459 l 424 771 l 557 771 "},"½":{"x_min":84,"x_max":1084.78125,"ha":1182,"o":"m 118 0 l 762 973 l 878 973 l 227 0 l 118 0 m 264 973 l 264 458 l 167 458 l 167 875 l 84 875 l 84 973 l 264 973 m 688 141 q 701 194 688 174 q 744 229 715 215 l 978 338 l 978 416 l 785 416 l 785 354 l 688 354 l 688 444 q 695 473 688 460 q 714 495 702 486 q 740 509 725 504 q 768 514 754 514 l 994 514 q 1023 508 1009 514 q 1049 494 1037 503 q 1068 472 1061 485 q 1075 444 1075 459 l 1075 341 q 1062 288 1075 309 q 1018 254 1048 268 l 785 144 l 785 97 l 987 97 l 987 160 l 1084 160 l 1084 0 l 688 0 l 688 141 l 688 141 "},"Æ":{"x_min":1.625,"x_max":1514.03125,"ha":1597,"o":"m 806 224 l 348 224 l 175 0 l 1 0 l 757 973 l 1514 973 l 1514 834 l 945 834 l 945 555 l 1430 555 l 1430 416 l 945 416 l 945 139 l 1514 139 l 1514 0 l 806 0 l 806 224 m 806 363 l 806 811 l 456 363 l 806 363 "},"Ë":{"x_min":125,"x_max":833.703125,"ha":917,"o":"m 125 973 l 833 973 l 833 834 l 264 834 l 264 555 l 750 555 l 750 416 l 264 416 l 264 139 l 833 139 l 833 0 l 125 0 l 125 973 m 553 1244 l 700 1244 l 700 1097 l 553 1097 l 553 1244 m 271 1244 l 418 1244 l 418 1097 l 271 1097 l 271 1244 "},"'":{"x_min":111,"x_max":291,"ha":403,"o":"m 247 517 l 154 517 l 111 825 l 111 973 l 291 973 l 291 825 l 247 517 "},"ª":{"x_min":97,"x_max":530,"ha":628,"o":"m 97 668 q 105 710 97 690 q 128 743 113 729 q 162 766 142 758 q 204 775 181 775 l 424 775 l 424 868 l 131 868 l 131 972 l 424 972 q 465 963 446 972 q 499 940 484 955 q 521 906 513 925 q 530 865 530 886 l 530 451 l 428 451 l 428 545 q 416 506 425 524 q 393 477 407 489 q 360 457 379 464 q 320 451 341 451 l 204 451 q 162 459 181 451 q 128 481 142 467 q 105 514 113 495 q 97 555 97 534 l 97 668 m 97 329 l 530 329 l 530 239 l 97 239 l 97 329 m 200 553 l 428 553 l 428 672 l 200 672 l 200 553 "},"ð":{"x_min":111,"x_max":736,"ha":847,"o":"m 736 133 q 725 81 736 105 q 696 38 714 56 q 654 10 679 21 q 603 0 630 0 l 244 0 q 192 10 216 0 q 150 39 168 21 q 121 81 132 57 q 111 133 111 105 l 111 589 q 121 641 111 617 q 150 683 132 665 q 192 712 168 701 q 244 723 216 723 l 573 723 q 546 779 562 752 q 511 829 531 806 l 396 761 l 353 836 l 451 893 q 396 934 425 916 q 336 966 367 952 l 380 1061 q 555 955 477 1025 l 673 1024 l 715 951 l 615 891 q 699 750 668 827 q 736 588 730 673 l 736 133 m 603 134 l 603 589 l 244 589 l 244 134 l 603 134 "},"T":{"x_min":41.5625,"x_max":819.453125,"ha":861,"o":"m 41 973 l 819 973 l 819 834 l 500 834 l 500 0 l 361 0 l 361 834 l 41 834 l 41 973 "},"Þ":{"x_min":125,"x_max":893,"ha":962,"o":"m 893 458 q 834 280 893 338 q 657 223 776 223 l 264 223 l 264 0 l 125 0 l 125 1000 l 264 1000 l 264 806 l 657 806 q 893 570 893 806 l 893 458 m 649 361 q 729 385 705 361 q 754 465 754 410 l 754 562 q 729 642 754 618 q 649 667 705 667 l 264 667 l 264 361 l 649 361 "},"j":{"x_min":14,"x_max":259,"ha":370,"o":"m 118 -158 l 118 722 l 252 722 l 252 -158 q 241 -210 252 -185 q 213 -252 230 -234 q 170 -281 195 -270 q 118 -292 146 -292 l 14 -292 l 14 -158 l 118 -158 m 111 1000 l 259 1000 l 259 861 l 111 861 l 111 1000 "},"1":{"x_min":41.15625,"x_max":347,"ha":486,"o":"m 347 973 l 347 0 l 208 0 l 208 834 l 41 834 l 41 973 l 347 973 "},"ä":{"x_min":111,"x_max":722,"ha":833,"o":"m 111 315 q 121 367 111 343 q 149 409 132 391 q 192 438 167 427 q 243 449 216 449 l 588 449 l 588 589 l 151 589 l 151 723 l 588 723 q 640 712 615 723 q 682 683 664 701 q 711 641 700 665 q 722 589 722 617 l 722 0 l 588 0 l 588 122 q 574 74 586 96 q 545 35 563 52 q 504 9 527 18 q 455 0 481 0 l 243 0 q 192 10 216 0 q 150 39 167 21 q 121 81 132 56 q 111 133 111 105 l 111 315 m 244 134 l 588 134 l 588 315 l 244 315 l 244 134 m 497 994 l 644 994 l 644 847 l 497 847 l 497 994 m 215 994 l 363 994 l 363 847 l 215 847 l 215 994 "},"<":{"x_min":55.609375,"x_max":813.875,"ha":925,"o":"m 55 468 l 813 793 l 813 651 l 205 396 l 813 141 l 813 0 l 55 324 l 55 468 "},"£":{"x_min":55.828125,"x_max":911,"ha":994,"o":"m 203 834 q 213 887 203 862 q 243 931 224 913 q 288 961 262 950 q 342 973 313 973 l 711 973 q 765 961 740 973 q 809 931 790 950 q 839 887 828 913 q 850 833 850 862 l 850 708 l 712 708 l 712 834 l 342 834 l 342 537 l 636 537 l 636 424 l 342 424 l 342 139 l 773 139 l 773 283 l 911 283 l 911 139 q 900 85 911 110 q 870 40 889 59 q 826 10 851 21 q 772 0 801 0 l 481 0 q 427 10 452 0 q 384 38 403 21 q 354 81 365 56 q 342 133 343 105 q 329 81 341 105 q 299 38 318 56 q 255 10 280 21 q 203 0 230 0 l 58 0 l 58 139 l 203 139 l 203 424 l 55 424 l 55 537 l 203 537 l 203 834 l 203 834 "},"¹":{"x_min":56,"x_max":236,"ha":334,"o":"m 236 973 l 236 458 l 139 458 l 139 875 l 56 875 l 56 973 l 236 973 "},"t":{"x_min":68.65625,"x_max":616.375,"ha":728,"o":"m 68 723 l 245 723 l 245 945 l 379 945 l 379 723 l 616 723 l 616 589 l 379 589 l 379 134 l 616 134 l 616 0 l 379 0 q 327 10 351 0 q 284 39 302 21 q 255 81 266 57 q 245 133 245 105 l 245 589 l 68 589 l 68 723 "},"¬":{"x_min":111.359375,"x_max":870,"ha":981,"o":"m 111 570 l 870 570 l 870 164 l 736 164 l 736 436 l 111 436 l 111 570 "},"ù":{"x_min":111,"x_max":750,"ha":861,"o":"m 111 722 l 244 722 l 244 134 l 616 134 l 616 722 l 750 722 l 750 0 l 616 0 l 616 122 q 602 74 613 96 q 572 35 590 52 q 531 9 555 18 q 483 0 508 0 l 244 0 q 192 10 216 0 q 150 39 168 21 q 121 81 132 57 q 111 134 111 106 l 111 722 m 531 846 l 404 846 l 174 1000 l 377 1000 l 531 846 "},"W":{"x_min":41.375,"x_max":1319.828125,"ha":1361,"o":"m 319 0 l 41 973 l 180 973 l 396 198 l 611 973 l 750 973 l 965 198 l 1180 973 l 1319 973 l 1041 0 l 889 0 l 680 729 l 472 0 l 319 0 "},"ï":{"x_min":-29,"x_max":401,"ha":370,"o":"m 252 722 l 252 0 l 118 0 l 118 722 l 252 722 m 253 994 l 401 994 l 401 847 l 253 847 l 253 994 m -29 994 l 118 994 l 118 847 l -29 847 l -29 994 "},">":{"x_min":111.234375,"x_max":869.484375,"ha":925,"o":"m 869 324 l 111 0 l 111 141 l 718 396 l 111 651 l 111 793 l 869 468 l 869 324 "},"v":{"x_min":27.8125,"x_max":744.6875,"ha":773,"o":"m 316 0 l 27 722 l 166 722 l 385 160 l 605 722 l 744 722 l 455 0 l 316 0 "},"û":{"x_min":111,"x_max":750,"ha":861,"o":"m 111 722 l 244 722 l 244 134 l 616 134 l 616 722 l 750 722 l 750 0 l 616 0 l 616 122 q 602 74 613 96 q 572 35 590 52 q 531 9 555 18 q 483 0 508 0 l 244 0 q 192 10 216 0 q 150 39 168 21 q 121 81 132 57 q 111 134 111 106 l 111 722 m 667 847 l 526 847 l 423 938 l 320 847 l 178 847 l 340 1014 l 507 1014 l 667 847 "},"Ò":{"x_min":125,"x_max":958,"ha":1083,"o":"m 958 139 q 947 85 958 110 q 917 40 936 59 q 872 10 898 21 q 819 0 847 0 l 264 0 q 210 10 235 0 q 165 40 184 21 q 135 85 146 59 q 125 139 125 110 l 125 833 q 135 887 125 862 q 165 931 146 913 q 210 961 184 950 q 264 973 235 973 l 819 973 q 872 961 847 973 q 917 931 898 950 q 947 887 936 913 q 958 833 958 862 l 958 139 m 264 834 l 264 139 l 819 139 l 819 834 l 264 834 m 663 1097 l 536 1097 l 307 1250 l 509 1250 l 663 1097 "},"&":{"x_min":97,"x_max":973.90625,"ha":1043,"o":"m 973 0 l 930 0 q 734 80 790 0 q 539 0 676 0 l 333 0 q 97 236 97 0 l 97 285 q 129 430 97 375 q 223 504 161 485 q 139 583 168 529 q 111 718 111 636 l 111 735 q 347 972 111 972 l 552 972 q 730 913 672 972 q 789 735 789 855 l 789 677 l 653 677 l 653 728 q 628 810 653 784 q 548 836 604 836 l 350 836 q 271 810 295 836 q 247 729 247 784 l 247 665 q 269 587 247 612 q 341 560 291 562 l 973 560 l 973 424 l 803 424 l 803 242 q 827 161 803 187 q 906 136 851 136 l 973 136 l 973 0 m 562 136 q 642 161 618 136 q 667 242 667 187 l 667 424 l 337 424 q 257 398 281 424 q 233 318 233 373 l 233 242 q 257 161 233 187 q 337 136 281 136 l 562 136 l 562 136 "},"Ð":{"x_min":28.21875,"x_max":987,"ha":1084,"o":"m 28 505 l 153 505 l 153 973 l 646 973 q 787 948 724 973 q 894 880 850 924 q 962 772 938 835 q 987 632 987 709 l 987 340 q 962 200 987 263 q 894 92 938 137 q 787 24 850 48 q 646 0 724 0 l 153 0 l 153 393 l 28 393 l 28 505 m 646 139 q 795 191 743 139 q 848 340 848 243 l 848 632 q 834 717 848 679 q 794 780 820 754 q 731 820 768 806 q 646 834 694 834 l 292 834 l 292 505 l 533 505 l 533 393 l 292 393 l 292 139 l 646 139 "},"I":{"x_min":125,"x_max":264,"ha":389,"o":"m 264 973 l 264 0 l 125 0 l 125 973 l 264 973 "},"G":{"x_min":125,"x_max":930,"ha":1055,"o":"m 125 833 q 135 887 125 862 q 165 931 146 913 q 210 961 184 950 q 264 973 235 973 l 791 973 q 844 961 819 973 q 889 931 870 950 q 919 887 908 913 q 930 833 930 862 l 930 708 l 791 708 l 791 834 l 264 834 l 264 139 l 791 139 l 791 375 l 527 375 l 527 514 l 930 514 l 930 139 q 919 85 930 110 q 889 40 908 59 q 844 10 870 21 q 791 0 819 0 l 264 0 q 210 10 235 0 q 165 40 184 21 q 135 85 146 59 q 125 139 125 110 l 125 833 "},"`":{"x_min":83.421875,"x_max":440.171875,"ha":524,"o":"m 440 847 l 312 847 l 83 1000 l 286 1000 l 440 847 "},"·":{"x_min":111,"x_max":314,"ha":425,"o":"m 111 581 l 314 581 l 314 378 l 111 378 l 111 581 "},"r":{"x_min":111,"x_max":653,"ha":708,"o":"m 244 589 l 244 0 l 111 0 l 111 723 l 244 723 l 243 595 q 256 645 245 621 q 284 686 266 668 q 326 713 302 703 q 377 723 350 723 l 519 722 q 571 711 546 722 q 613 682 595 700 q 642 640 631 664 q 653 588 653 616 l 653 466 l 519 466 l 519 589 l 244 589 "},"¿":{"x_min":83,"x_max":694,"ha":777,"o":"m 83 -33 q 88 17 83 -5 q 105 57 93 39 q 135 89 117 74 q 179 116 154 104 l 359 202 l 359 319 l 498 319 l 498 227 q 492 176 498 198 q 474 136 486 154 q 445 104 463 118 q 401 77 426 89 l 222 -8 l 222 -153 l 555 -153 l 555 -28 l 694 -28 l 694 -152 q 683 -206 694 -181 q 653 -251 672 -232 q 608 -281 634 -270 q 554 -292 583 -292 l 222 -292 q 168 -281 193 -292 q 123 -251 142 -270 q 93 -206 104 -232 q 83 -153 83 -181 l 83 -33 m 526 478 l 323 478 l 323 681 l 526 681 l 526 478 "},"ý":{"x_min":27.8125,"x_max":730.453125,"ha":758,"o":"m 160 -292 l 311 64 l 27 721 l 168 721 l 379 224 l 590 721 l 730 721 l 293 -292 l 160 -292 m 437 1000 l 640 1000 l 411 846 l 283 846 l 437 1000 "},"x":{"x_min":41.375,"x_max":752.828125,"ha":794,"o":"m 740 722 l 478 369 l 752 0 l 591 0 l 397 261 l 202 0 l 41 0 l 316 369 l 54 722 l 215 722 l 397 477 l 579 722 l 740 722 "},"è":{"x_min":111,"x_max":723,"ha":834,"o":"m 723 293 l 244 293 l 244 134 l 723 134 l 723 0 l 244 0 q 192 10 216 0 q 150 39 168 21 q 121 81 132 57 q 111 133 111 105 l 111 589 q 121 641 111 617 q 150 683 132 665 q 192 712 168 701 q 244 723 216 723 l 589 723 q 641 712 616 723 q 683 683 665 701 q 712 641 701 665 q 723 589 723 617 l 723 293 m 244 589 l 244 427 l 589 427 l 589 589 l 244 589 m 539 846 l 411 846 l 181 1000 l 384 1000 l 539 846 "},"º":{"x_min":97,"x_max":530,"ha":628,"o":"m 530 555 q 521 514 530 534 q 499 481 513 495 q 465 459 484 467 q 424 451 446 451 l 204 451 q 162 459 181 451 q 128 481 142 467 q 105 514 113 495 q 97 555 97 534 l 97 865 q 105 906 97 886 q 128 940 113 925 q 162 963 142 955 q 204 972 181 972 l 424 972 q 465 963 446 972 q 499 940 484 955 q 521 906 513 925 q 530 865 530 886 l 530 555 m 200 868 l 200 553 l 428 553 l 428 868 l 200 868 m 97 329 l 530 329 l 530 239 l 97 239 l 97 329 "},"Ø":{"x_min":125,"x_max":958,"ha":1083,"o":"m 958 139 q 947 85 958 110 q 917 40 936 59 q 872 10 898 21 q 819 0 847 0 l 315 0 l 234 -139 l 125 -139 l 209 9 q 175 30 191 17 q 149 60 160 43 q 131 97 137 77 q 125 139 125 117 l 125 833 q 135 887 125 862 q 165 931 146 913 q 210 961 184 950 q 264 973 235 973 l 762 973 l 841 1111 l 958 1111 l 871 961 q 906 940 890 952 q 933 910 922 927 q 951 874 945 893 q 958 833 958 855 l 958 139 m 797 834 l 395 139 l 819 139 l 819 834 l 797 834 m 264 139 l 283 139 l 682 834 l 264 834 l 264 139 "},"÷":{"x_min":111.234375,"x_max":869.484375,"ha":981,"o":"m 111 459 l 869 459 l 869 325 l 111 325 l 111 459 m 399 761 l 582 761 l 582 578 l 399 578 l 399 761 m 399 205 l 582 205 l 582 22 l 399 22 l 399 205 "},"h":{"x_min":111,"x_max":750,"ha":861,"o":"m 750 0 l 616 0 l 616 589 l 244 589 l 244 0 l 111 0 l 111 1000 l 244 1000 l 243 595 q 256 645 245 621 q 284 685 267 668 q 326 713 302 703 q 377 723 350 723 l 616 723 q 668 712 643 723 q 710 683 692 701 q 739 641 728 665 q 750 589 750 617 l 750 0 "},".":{"x_min":111,"x_max":314,"ha":425,"o":"m 111 203 l 314 203 l 314 0 l 111 0 l 111 203 "},";":{"x_min":111,"x_max":314,"ha":425,"o":"m 209 -207 l 111 -207 l 210 0 l 111 0 l 111 203 l 314 203 l 314 0 l 209 -207 m 111 722 l 314 722 l 314 519 l 111 519 l 111 722 "},"f":{"x_min":68.65625,"x_max":616.375,"ha":686,"o":"m 379 867 l 379 723 l 616 723 l 616 589 l 379 589 l 379 0 l 245 0 l 245 589 l 68 589 l 68 723 l 245 723 l 245 867 q 255 919 245 895 q 284 961 266 943 q 327 990 302 979 q 379 1001 351 1001 l 616 1001 l 616 867 l 379 867 "},"̇":{"x_min":83,"x_max":258,"ha":341,"o":"m 83 1022 l 258 1022 l 258 847 l 83 847 l 83 1022 "},"A":{"x_min":41.375,"x_max":930.515625,"ha":973,"o":"m 555 973 l 930 0 l 791 0 l 705 224 l 266 224 l 180 0 l 41 0 l 416 973 l 555 973 m 319 363 l 651 363 l 486 791 l 319 363 "},"6":{"x_min":125,"x_max":848,"ha":973,"o":"m 125 833 q 135 887 125 862 q 165 931 146 913 q 210 961 184 950 q 264 973 235 973 l 709 973 q 762 961 737 973 q 807 931 788 950 q 837 887 826 913 q 848 833 848 862 l 848 708 l 709 708 l 709 834 l 264 834 l 264 555 l 709 555 q 762 544 737 555 q 807 514 788 533 q 837 469 826 495 q 848 416 848 444 l 848 138 q 837 85 848 110 q 807 40 826 59 q 762 10 788 21 q 709 0 737 0 l 264 0 q 210 10 235 0 q 165 40 184 21 q 135 85 146 59 q 125 139 125 110 l 125 833 m 264 416 l 264 139 l 709 139 l 709 416 l 264 416 "},"O":{"x_min":125,"x_max":958,"ha":1083,"o":"m 958 139 q 947 85 958 110 q 917 40 936 59 q 872 10 898 21 q 819 0 847 0 l 264 0 q 210 10 235 0 q 165 40 184 21 q 135 85 146 59 q 125 139 125 110 l 125 833 q 135 887 125 862 q 165 931 146 913 q 210 961 184 950 q 264 973 235 973 l 819 973 q 872 961 847 973 q 917 931 898 950 q 947 887 936 913 q 958 833 958 862 l 958 139 m 264 834 l 264 139 l 819 139 l 819 834 l 264 834 "},"n":{"x_min":111,"x_max":750,"ha":861,"o":"m 750 0 l 616 0 l 616 589 l 244 589 l 244 0 l 111 0 l 111 723 l 244 723 l 243 595 q 256 645 245 621 q 284 685 267 668 q 326 713 302 703 q 377 723 350 723 l 616 723 q 668 712 643 723 q 710 683 692 701 q 739 641 728 665 q 750 589 750 617 l 750 0 "},"3":{"x_min":69,"x_max":831,"ha":914,"o":"m 69 294 l 205 294 l 205 242 q 229 161 205 187 q 309 136 253 136 l 590 136 q 670 161 646 136 q 695 242 695 187 l 695 318 q 670 398 695 373 q 590 424 645 424 l 302 424 l 302 560 l 586 560 q 658 587 636 562 q 681 665 681 612 l 681 729 q 656 810 681 784 q 576 836 631 836 l 322 836 q 243 810 267 836 q 219 728 219 784 l 219 677 l 83 677 l 83 735 q 319 972 83 972 l 580 972 q 758 913 700 972 q 817 735 817 855 l 817 718 q 788 583 817 636 q 704 504 759 529 q 798 430 765 485 q 831 285 831 375 l 831 236 q 594 0 831 0 l 305 0 q 69 235 69 0 l 69 294 "},"9":{"x_min":125,"x_max":848,"ha":973,"o":"m 848 139 q 837 85 848 110 q 807 40 826 59 q 762 10 788 21 q 709 0 737 0 l 264 0 q 210 10 235 0 q 165 40 184 21 q 135 85 146 59 q 125 139 125 110 l 125 264 l 264 264 l 264 139 l 709 139 l 709 416 l 264 416 q 210 427 235 416 q 165 457 184 438 q 135 501 146 475 q 125 555 125 526 l 125 833 q 135 887 125 862 q 165 931 146 913 q 210 961 184 950 q 264 973 235 973 l 709 973 q 762 961 737 973 q 807 931 788 950 q 837 887 826 913 q 848 833 848 862 l 848 139 m 709 555 l 709 834 l 264 834 l 264 555 l 709 555 "},"l":{"x_min":111,"x_max":244,"ha":355,"o":"m 244 1000 l 244 0 l 111 0 l 111 1000 l 244 1000 "},"¤":{"x_min":97.3125,"x_max":798.359375,"ha":895,"o":"m 712 135 l 605 240 q 530 206 570 218 q 447 195 490 195 q 363 207 402 195 q 290 241 324 220 l 183 135 l 97 221 l 204 327 q 169 401 182 361 q 157 485 157 440 q 169 568 157 527 q 202 641 181 608 l 97 748 l 183 835 l 290 727 q 363 762 324 749 q 447 775 402 775 q 530 762 490 775 q 605 727 570 749 l 712 835 l 798 748 l 691 641 q 725 568 712 608 q 738 485 738 527 q 725 401 738 440 q 691 327 712 361 l 798 221 l 712 135 m 285 485 q 297 421 285 451 q 332 368 310 391 q 383 333 354 346 q 447 320 413 320 q 510 333 481 320 q 562 368 540 346 q 597 421 584 391 q 610 485 610 451 q 597 549 610 519 q 562 601 584 578 q 510 636 540 623 q 447 650 481 650 q 383 636 413 650 q 332 601 354 623 q 297 549 310 578 q 285 485 285 519 "},"4":{"x_min":28.078125,"x_max":801.890625,"ha":843,"o":"m 28 334 l 507 973 l 671 973 l 671 335 l 801 335 l 801 201 l 671 201 l 671 0 l 532 0 l 532 201 l 28 201 l 28 334 m 532 335 l 532 804 l 179 335 l 532 335 "},"p":{"x_min":111,"x_max":750,"ha":861,"o":"m 750 133 q 739 81 750 105 q 710 39 728 57 q 668 10 692 21 q 616 0 643 0 l 244 0 l 244 -292 l 111 -292 l 111 723 l 244 723 l 243 600 q 257 648 245 626 q 286 687 269 670 q 327 713 304 703 q 377 723 351 723 l 616 723 q 668 712 643 723 q 710 683 692 701 q 739 641 728 665 q 750 589 750 617 l 750 133 m 616 134 l 616 589 l 244 589 l 244 134 l 616 134 "},"à":{"x_min":111,"x_max":723,"ha":834,"o":"m 111 315 q 121 367 111 343 q 150 409 132 391 q 192 438 168 427 q 244 449 216 449 l 589 449 l 589 589 l 152 589 l 152 723 l 589 723 q 641 712 616 723 q 683 683 665 701 q 712 641 701 665 q 723 589 723 617 l 723 0 l 589 0 l 589 122 q 575 74 587 96 q 546 35 564 52 q 504 9 528 18 q 456 0 481 0 l 244 0 q 192 10 216 0 q 150 39 168 21 q 121 81 132 56 q 111 133 111 105 l 111 315 m 244 134 l 589 134 l 589 315 l 244 315 l 244 134 m 539 846 l 411 846 l 181 1000 l 384 1000 l 539 846 "},"Ü":{"x_min":125,"x_max":958,"ha":1083,"o":"m 125 972 l 264 972 l 264 139 l 819 139 l 819 972 l 958 972 l 958 139 q 947 85 958 110 q 917 40 936 59 q 872 10 898 21 q 819 0 847 0 l 263 0 q 210 10 235 0 q 165 40 184 21 q 135 85 146 59 q 125 139 125 110 l 125 972 m 608 1244 l 755 1244 l 755 1097 l 608 1097 l 608 1244 m 326 1244 l 473 1244 l 473 1097 l 326 1097 l 326 1244 "},"ó":{"x_min":111,"x_max":736,"ha":847,"o":"m 736 133 q 725 81 736 105 q 696 39 714 57 q 654 10 679 21 q 603 0 630 0 l 244 0 q 192 10 216 0 q 150 39 168 21 q 121 81 132 57 q 111 133 111 105 l 111 589 q 121 641 111 617 q 150 683 132 665 q 192 712 168 701 q 244 723 216 723 l 603 723 q 654 712 630 723 q 696 683 679 701 q 725 641 714 665 q 736 589 736 617 l 736 133 m 244 589 l 244 134 l 603 134 l 603 589 l 244 589 m 454 1000 l 657 1000 l 427 846 l 299 846 l 454 1000 "}}}
